<svg width="1440" height="785" viewBox="0 0 1440 785" fill="none" xmlns="http://www.w3.org/2000/svg">
<g clip-path="url(#clip0_245_217)">
<rect width="1440" height="785" fill="white"/>
<g opacity="0.5" filter="url(#filter0_f_245_217)">
<ellipse cx="95" cy="227.5" rx="68" ry="64.5" fill="#FF890C"/>
</g>
<g opacity="0.5" filter="url(#filter1_f_245_217)">
<ellipse cx="1205" cy="457.5" rx="68" ry="64.5" fill="#ED893E"/>
</g>
<g opacity="0.5" filter="url(#filter2_f_245_217)">
<ellipse cx="723" cy="356.5" rx="68" ry="64.5" fill="#FF385C"/>
</g>
<g opacity="0.5" filter="url(#filter3_f_245_217)">
<ellipse cx="359" cy="267.5" rx="68" ry="64.5" fill="#ED893E"/>
</g>
<g opacity="0.05">
<path d="M95.4748 576.872C93.6031 575.677 92.5116 573.247 91.03 571.628C88.0668 568.412 83.4887 563.163 82.7972 560.18L94.2945 556.229L98.1022 565.513C98.9072 567.667 102.493 570.813 104.483 571.835C105.649 572.442 106.923 572.981 108.217 573.519C110.814 574.566 113.605 575.495 116.306 576.428L115.625 581.332C114.052 581.346 112.479 581.28 110.913 581.135C109.357 580.986 107.797 580.789 106.236 580.492C104.634 580.203 103.05 579.815 101.495 579.332C99.8949 578.848 97.1243 577.919 95.4748 576.872Z" fill="#FF385C"/>
<path opacity="0.8" d="M95.4748 576.872C93.6031 575.677 92.5116 573.247 91.03 571.628C88.0668 568.412 83.4887 563.163 82.7972 560.18L94.2945 556.229L98.1022 565.513C98.9072 567.667 102.493 570.813 104.483 571.835C105.649 572.442 106.923 572.981 108.217 573.519C110.814 574.566 113.605 575.495 116.306 576.428L115.625 581.332C114.052 581.346 112.479 581.28 110.913 581.135C109.357 580.986 107.797 580.789 106.236 580.492C104.634 580.203 103.05 579.815 101.495 579.332C99.8949 578.848 97.1243 577.919 95.4748 576.872Z" fill="#F0F0F0"/>
<path d="M107.476 581.386L109.56 573.529C109.56 573.529 121.635 575.732 122.02 579.075C122.415 582.532 114.01 582.448 107.476 581.386Z" fill="#263238"/>
<path d="M116.148 577.292L114.4 574.823C114.4 574.823 120.534 574.048 120.697 575.03C120.899 576.379 119.077 577.297 116.148 577.292Z" fill="#263238"/>
<path d="M60.5139 629.889C60.6415 629.89 60.7654 629.846 60.8645 629.766C63.2499 627.859 70.8209 621.108 68.2725 614.357C66.1884 608.816 61.1312 604.149 55.0863 602.168C52.764 601.474 50.3912 600.962 47.9894 600.637C46.3645 600.376 44.6854 600.104 43.0803 599.719C35.697 597.946 31.9782 593.071 33.3758 586.997C34.0129 584.246 35.7167 582.023 37.5243 579.668C38.9615 577.801 40.4381 575.87 41.332 573.657C41.332 573.657 41.332 573.618 41.332 573.598C42.1766 570.581 40.9764 567.672 39.8109 564.876C39.5393 564.22 39.2825 563.597 39.0454 562.97C38.0577 560.288 37.144 557.404 37.2971 554.49C37.4799 551.033 39.7961 547.3 43.1939 545.033C48.503 541.482 58.3013 538.311 62.4548 542.771C62.8085 543.173 63.1383 543.595 63.4425 544.035C63.8586 544.628 64.3246 545.185 64.8352 545.699C65.6855 546.475 66.7002 547.049 67.8035 547.377C68.9067 547.706 70.0699 547.781 71.2061 547.596C72.385 547.395 73.5018 546.926 74.4697 546.223C75.4376 545.521 76.2305 544.605 76.7868 543.546C76.8196 543.48 76.839 543.408 76.8439 543.335C76.8487 543.261 76.8389 543.187 76.815 543.117C76.7912 543.047 76.7537 542.983 76.7047 542.928C76.6558 542.873 76.5964 542.828 76.53 542.796C76.4636 542.763 76.3913 542.743 76.3173 542.738C76.2433 542.733 76.169 542.743 76.0988 542.767C76.0286 542.791 75.9638 542.828 75.9081 542.877C75.8525 542.926 75.807 542.986 75.7744 543.052C75.3181 543.936 74.6646 544.704 73.8645 545.295C73.0644 545.886 72.1391 546.285 71.1601 546.462C70.181 546.639 69.1745 546.588 68.2182 546.313C67.262 546.039 66.3816 545.548 65.6452 544.88C65.1827 544.41 64.7598 543.903 64.3809 543.363C64.048 542.891 63.6885 542.437 63.3042 542.005C58.1976 536.533 47.1399 541.052 42.5618 544.094C38.8825 546.564 36.3687 550.613 36.1662 554.431C36.0032 557.552 36.9415 560.57 37.9885 563.365C38.2256 564.012 38.4824 564.669 38.7639 565.311C39.8504 567.928 40.9764 570.63 40.2455 573.267C39.4109 575.327 37.9836 577.184 36.6008 578.981C34.8031 581.327 32.9412 583.752 32.2498 586.745C30.7237 593.387 34.8574 598.909 42.7889 600.815C44.4335 601.21 46.1324 601.487 47.777 601.749C50.1166 602.063 52.4282 602.558 54.6912 603.23C60.42 605.102 65.2056 609.517 67.1761 614.742C69.4529 620.787 62.3461 627.089 60.1138 628.877C60.0284 628.951 59.9674 629.049 59.9386 629.159C59.9098 629.268 59.9146 629.383 59.9525 629.49C59.9903 629.597 60.0594 629.689 60.1507 629.756C60.2421 629.823 60.3514 629.861 60.4645 629.864L60.5139 629.889Z" fill="#FF385C"/>
<path opacity="0.7" d="M60.5139 629.889C60.6415 629.89 60.7654 629.846 60.8645 629.766C63.2499 627.859 70.8209 621.108 68.2725 614.357C66.1884 608.816 61.1312 604.149 55.0863 602.168C52.764 601.474 50.3912 600.962 47.9894 600.637C46.3645 600.376 44.6854 600.104 43.0803 599.719C35.697 597.946 31.9782 593.071 33.3758 586.997C34.0129 584.246 35.7167 582.023 37.5243 579.668C38.9615 577.801 40.4381 575.87 41.332 573.657C41.332 573.657 41.332 573.618 41.332 573.598C42.1766 570.581 40.9764 567.672 39.8109 564.876C39.5393 564.22 39.2825 563.597 39.0454 562.97C38.0577 560.288 37.144 557.404 37.2971 554.49C37.4799 551.033 39.7961 547.3 43.1939 545.033C48.503 541.482 58.3013 538.311 62.4548 542.771C62.8085 543.173 63.1383 543.595 63.4425 544.035C63.8586 544.628 64.3246 545.185 64.8352 545.699C65.6855 546.475 66.7002 547.049 67.8035 547.377C68.9067 547.706 70.0699 547.781 71.2061 547.596C72.385 547.395 73.5018 546.926 74.4697 546.223C75.4376 545.521 76.2305 544.605 76.7868 543.546C76.8196 543.48 76.839 543.408 76.8439 543.335C76.8487 543.261 76.8389 543.187 76.815 543.117C76.7912 543.047 76.7537 542.983 76.7047 542.928C76.6558 542.873 76.5964 542.828 76.53 542.796C76.4636 542.763 76.3913 542.743 76.3173 542.738C76.2433 542.733 76.169 542.743 76.0988 542.767C76.0286 542.791 75.9638 542.828 75.9081 542.877C75.8525 542.926 75.807 542.986 75.7744 543.052C75.3181 543.936 74.6646 544.704 73.8645 545.295C73.0644 545.886 72.1391 546.285 71.1601 546.462C70.181 546.639 69.1745 546.588 68.2182 546.313C67.262 546.039 66.3816 545.548 65.6452 544.88C65.1827 544.41 64.7598 543.903 64.3809 543.363C64.048 542.891 63.6885 542.437 63.3042 542.005C58.1976 536.533 47.1399 541.052 42.5618 544.094C38.8825 546.564 36.3687 550.613 36.1662 554.431C36.0032 557.552 36.9415 560.57 37.9885 563.365C38.2256 564.012 38.4824 564.669 38.7639 565.311C39.8504 567.928 40.9764 570.63 40.2455 573.267C39.4109 575.327 37.9836 577.184 36.6008 578.981C34.8031 581.327 32.9412 583.752 32.2498 586.745C30.7237 593.387 34.8574 598.909 42.7889 600.815C44.4335 601.21 46.1324 601.487 47.777 601.749C50.1166 602.063 52.4282 602.558 54.6912 603.23C60.42 605.102 65.2056 609.517 67.1761 614.742C69.4529 620.787 62.3461 627.089 60.1138 628.877C60.0284 628.951 59.9674 629.049 59.9386 629.159C59.9098 629.268 59.9146 629.383 59.9525 629.49C59.9903 629.597 60.0594 629.689 60.1507 629.756C60.2421 629.823 60.3514 629.861 60.4645 629.864L60.5139 629.889Z" fill="#F0F0F0"/>
<path opacity="0.2" d="M93.9241 568.319C94.5612 569.38 94.7044 572.763 94.3784 575.964C93.1141 574.689 92.1955 572.897 91.0201 571.613L90.7732 571.346C92.077 569.509 93.5586 567.667 93.9241 568.319Z" fill="black"/>
<path d="M94.3044 556.189C94.3044 556.189 97.2676 568.284 88.8422 588.291L66.2675 584.28C66.6527 581.204 71.5025 567.242 70.7123 552.288C73.2623 551.998 75.837 551.998 78.387 552.288C81.6175 552.696 84.8252 553.268 87.9977 554.001C90.1478 554.585 92.255 555.316 94.3044 556.189Z" fill="#FF385C"/>
<path opacity="0.8" d="M94.3044 556.189C94.3044 556.189 97.2676 568.284 88.8422 588.291L66.2675 584.28C66.6527 581.204 71.5025 567.242 70.7123 552.288C73.2623 551.998 75.837 551.998 78.387 552.288C81.6175 552.696 84.8252 553.268 87.9977 554.001C90.1478 554.585 92.255 555.316 94.3044 556.189Z" fill="#F0F0F0"/>
<path opacity="0.2" d="M73.3248 563.583C72.3397 564.817 71.2124 565.931 69.9665 566.901C70.1147 565.869 70.253 564.812 70.3665 563.736L73.3248 563.583Z" fill="black"/>
<path d="M88.8422 588.315C88.8422 588.315 100.28 601.6 99.3467 613.068C98.359 625 85.9432 644.552 85.9432 644.552L78.3969 640.769C78.3969 640.769 83.3355 620.219 87.168 614.248C82.9898 607.29 77.4733 598.983 73.6656 586.246C80.639 587.491 88.8422 588.315 88.8422 588.315Z" fill="#FF385C"/>
<path opacity="0.8" d="M88.8422 588.315C88.8422 588.315 100.28 601.6 99.3467 613.068C98.359 625 85.9432 644.552 85.9432 644.552L78.3969 640.769C78.3969 640.769 83.3355 620.219 87.168 614.248C82.9898 607.29 77.4733 598.983 73.6656 586.246C80.639 587.491 88.8422 588.315 88.8422 588.315Z" fill="#F0F0F0"/>
<path opacity="0.2" d="M78.1203 595.269C80.1946 596.835 81.4589 601.438 81.4934 604.653C79.7404 601.514 78.1657 598.279 76.777 594.963C77.0098 594.915 77.2501 594.918 77.4817 594.971C77.7134 595.024 77.9311 595.125 78.1203 595.269Z" fill="black"/>
<path d="M85.7407 643.841L79.3204 639.925C79.2181 639.875 79.1019 639.862 78.9912 639.888C78.8805 639.914 78.7822 639.978 78.7129 640.068L75.972 644.799C75.8837 644.893 75.8174 645.006 75.7777 645.128C75.7381 645.251 75.7261 645.381 75.7426 645.509C75.7591 645.637 75.8038 645.76 75.8733 645.868C75.9429 645.977 76.0356 646.069 76.1448 646.138C78.0363 647.125 78.1796 647.036 80.5353 648.33C81.9824 649.13 84.8764 650.943 86.8766 652.044C88.8767 653.146 90.2497 651.175 89.6571 650.405C87.4593 647.565 86.8519 646.454 86.3333 644.597C86.2898 644.438 86.2149 644.289 86.1131 644.159C86.0114 644.029 85.8848 643.921 85.7407 643.841Z" fill="#FF385C"/>
<path opacity="0.8" d="M85.7407 643.841L79.3204 639.925C79.2181 639.875 79.1019 639.862 78.9912 639.888C78.8805 639.914 78.7822 639.978 78.7129 640.068L75.972 644.799C75.8837 644.893 75.8174 645.006 75.7777 645.128C75.7381 645.251 75.7261 645.381 75.7426 645.509C75.7591 645.637 75.8038 645.76 75.8733 645.868C75.9429 645.977 76.0356 646.069 76.1448 646.138C78.0363 647.125 78.1796 647.036 80.5353 648.33C81.9824 649.13 84.8764 650.943 86.8766 652.044C88.8767 653.146 90.2497 651.175 89.6571 650.405C87.4593 647.565 86.8519 646.454 86.3333 644.597C86.2898 644.438 86.2149 644.289 86.1131 644.159C86.0114 644.029 85.8848 643.921 85.7407 643.841Z" fill="#F0F0F0"/>
<path d="M35.4846 651.269L73.1075 689.795L79.5821 676.668L48.7598 645.105L35.4846 651.269Z" fill="#FF385C"/>
<path opacity="0.4" d="M35.4846 651.269L73.1075 689.795L79.5821 676.668L48.7598 645.105L35.4846 651.269Z" fill="black"/>
<path d="M39.89 660.119L64.3612 685.183L75.3201 670.055L55.269 649.525L39.89 660.119Z" fill="#FF385C"/>
<path opacity="0.3" d="M39.89 660.119L64.3612 685.183L75.3201 670.055L55.269 649.525L39.89 660.119Z" fill="black"/>
<path d="M109.031 652.123C109.031 652.123 99.401 662.381 91.1288 671.305C89.9765 672.58 89.1782 674.134 88.8134 675.813C88.4486 677.493 88.5301 679.238 89.0496 680.876C90.9608 687.296 88.1606 698.621 88.1606 698.621C97.312 690.818 121.887 683.992 109.031 652.123Z" fill="#FF385C"/>
<path opacity="0.3" d="M109.031 652.123C109.031 652.123 99.401 662.381 91.1288 671.305C89.9765 672.58 89.1782 674.134 88.8134 675.813C88.4486 677.493 88.5301 679.238 89.0496 680.876C90.9608 687.296 88.1606 698.621 88.1606 698.621C97.312 690.818 121.887 683.992 109.031 652.123Z" fill="black"/>
<path d="M73.9965 616.248C73.9965 616.248 63.5117 625.632 54.3949 633.692C53.0931 634.813 51.5206 635.574 49.8337 635.899C48.1468 636.223 46.4043 636.101 44.7793 635.544C38.4281 633.479 27 636.013 27 636.013C35.0352 627.049 42.4383 602.642 73.9965 616.248Z" fill="#FF385C"/>
<path opacity="0.3" d="M73.9965 616.248C73.9965 616.248 63.5117 625.632 54.3949 633.692C53.0931 634.813 51.5206 635.574 49.8337 635.899C48.1468 636.223 46.4043 636.101 44.7793 635.544C38.4281 633.479 27 636.013 27 636.013C35.0352 627.049 42.4383 602.642 73.9965 616.248Z" fill="black"/>
<path d="M98.0231 591.521C118.642 573.568 140.901 567.988 149.879 577.198C158.858 586.409 152.749 608.52 134.317 628.704L88.5853 678.782C87.6867 679.765 86.597 680.554 85.383 681.101C84.169 681.648 82.8561 681.942 81.5246 681.964C80.1932 681.986 78.8713 681.736 77.6397 681.23C76.4081 680.724 75.2927 679.971 74.3619 679.019L46.2954 650.281C45.3651 649.328 44.6392 648.195 44.1621 646.952C43.6851 645.708 43.4669 644.38 43.521 643.05C43.5751 641.719 43.9003 640.413 44.4767 639.213C45.0532 638.012 45.8686 636.942 46.8732 636.067L98.0231 591.521Z" fill="#FF385C"/>
<path opacity="0.1" d="M73.7792 671.453C73.5259 671.579 73.3058 671.764 73.1369 671.991C72.9679 672.218 72.8548 672.481 72.8068 672.76C72.7587 673.039 72.7769 673.326 72.8601 673.596C72.9432 673.867 73.0889 674.114 73.2853 674.318C76.2979 677.429 82.0021 676.639 85.7604 672.584L131.132 623.691C140.249 613.868 146.733 603.936 150.092 595.595C151.079 593.126 147.652 591.392 146.225 593.62C141.676 600.726 134.895 609.211 126.406 618.056L78.6487 667.744C77.2412 669.241 75.5958 670.494 73.7792 671.453Z" fill="#F0F0F0"/>
<path opacity="0.1" d="M130.915 573.559C135.528 573.391 141.321 576.028 146.081 580.897C150.842 585.767 153.331 591.624 153.06 596.237C154.922 588.162 153.949 581.352 149.884 577.184C145.82 573.015 139.029 571.884 130.915 573.559Z" fill="black"/>
<path opacity="0.3" d="M114.971 628.473C105.298 628.28 97.6132 620.283 97.8056 610.61C97.9981 600.937 105.995 593.252 115.668 593.444C125.341 593.637 133.026 601.634 132.834 611.307C132.641 620.98 124.644 628.665 114.971 628.473Z" fill="black"/>
<path d="M102.105 621.18C96.1383 613.564 97.4746 602.554 105.09 596.587C112.705 590.62 123.716 591.956 129.683 599.571C135.65 607.187 134.314 618.198 126.698 624.164C119.083 630.131 108.072 628.795 102.105 621.18Z" fill="#F0F0F0"/>
<path opacity="0.7" d="M103.95 620.802C98.1981 614.204 98.8841 604.193 105.482 598.441C112.08 592.69 122.091 593.376 127.842 599.974C133.594 606.571 132.908 616.582 126.31 622.334C119.712 628.086 109.701 627.4 103.95 620.802Z" fill="#FF385C"/>
<g opacity="0.2">
<path d="M127.231 599.299C128.74 600.832 129.917 602.659 130.688 604.667L123.102 624.491C120.037 626.048 116.55 626.568 113.165 625.973L124.277 596.923C125.353 597.594 126.345 598.391 127.231 599.299Z" fill="#F0F0F0"/>
<path d="M123.112 596.267L111.856 625.696C110.124 625.243 108.481 624.5 106.997 623.498L118.01 594.652C119.791 594.89 121.518 595.436 123.112 596.267Z" fill="#F0F0F0"/>
</g>
<path d="M56.4444 645.224L53.0911 638.532C53.0304 638.437 52.939 638.365 52.8321 638.329C52.7252 638.294 52.6092 638.295 52.5034 638.334L47.7622 640.557C47.6378 640.59 47.5221 640.65 47.4236 640.733C47.325 640.816 47.2461 640.92 47.1923 641.037C47.1385 641.154 47.1112 641.281 47.1124 641.41C47.1136 641.539 47.1433 641.666 47.1992 641.782C48.266 643.619 48.35 643.945 49.6686 646.281C50.4686 647.718 51.9552 650.775 53.0615 652.76C54.1677 654.746 56.3753 653.802 56.2815 652.839C55.9308 649.279 56.0197 648.004 56.558 646.177C56.6043 646.019 56.618 645.853 56.5985 645.689C56.579 645.525 56.5266 645.367 56.4444 645.224Z" fill="#FF385C"/>
<path opacity="0.8" d="M56.4444 645.224L53.0911 638.532C53.0304 638.437 52.939 638.365 52.8321 638.329C52.7252 638.294 52.6092 638.295 52.5034 638.334L47.7622 640.557C47.6378 640.59 47.5221 640.65 47.4236 640.733C47.325 640.816 47.2461 640.92 47.1923 641.037C47.1385 641.154 47.1112 641.281 47.1124 641.41C47.1136 641.539 47.1433 641.666 47.1992 641.782C48.266 643.619 48.35 643.945 49.6686 646.281C50.4686 647.718 51.9552 650.775 53.0615 652.76C54.1677 654.746 56.3753 653.802 56.2815 652.839C55.9308 649.279 56.0197 648.004 56.558 646.177C56.6043 646.019 56.618 645.853 56.5985 645.689C56.579 645.525 56.5266 645.367 56.4444 645.224Z" fill="#F0F0F0"/>
<path d="M80.8415 586.893C80.8415 586.893 80.797 607.912 76.2781 618.071C71.3296 629.223 56.1382 646.508 56.1382 646.508L50.4093 640.754C50.4093 640.754 57.6346 624.951 64.3414 616.5C64.4796 606.09 63.3536 594.731 66.1193 585.293C70.98 586.192 75.9011 586.727 80.8415 586.893Z" fill="#FF385C"/>
<path opacity="0.8" d="M80.8415 586.893C80.8415 586.893 80.797 607.912 76.2781 618.071C71.3296 629.223 56.1382 646.508 56.1382 646.508L50.4093 640.754C50.4093 640.754 57.6346 624.951 64.3414 616.5C64.4796 606.09 63.3536 594.731 66.1193 585.293C70.98 586.192 75.9011 586.727 80.8415 586.893Z" fill="#F0F0F0"/>
<path d="M66.8503 586.903C77.3252 589.323 85.2123 589.57 88.4274 589.545C88.631 589.546 88.8325 589.504 89.0194 589.423C89.2062 589.342 89.3744 589.224 89.5135 589.075C89.6525 588.926 89.7594 588.751 89.8274 588.559C89.8955 588.367 89.9232 588.163 89.909 587.96C89.891 587.575 89.7237 587.212 89.4424 586.948C89.1612 586.684 88.7882 586.541 88.4027 586.547C81.3666 586.48 74.3606 585.62 67.517 583.984C67.3273 583.939 67.1304 583.931 66.9378 583.962C66.7451 583.993 66.5604 584.061 66.3943 584.164C66.2282 584.266 66.0839 584.4 65.9698 584.558C65.8556 584.716 65.7739 584.896 65.7292 585.086C65.6795 585.279 65.6692 585.48 65.6991 585.677C65.729 585.874 65.7983 586.063 65.903 586.233C66.0077 586.403 66.1455 586.549 66.3083 586.665C66.4711 586.78 66.6554 586.861 66.8503 586.903Z" fill="#263238"/>
<path d="M55.2344 564.99C56.1234 562.95 57.3581 561.597 59.0224 560.165C62.3165 557.315 67.7491 552.9 70.7123 552.307L74.3126 563.928L64.85 567.42C62.9783 568.753 62.5585 569.632 62.0054 571.8C61.6745 573.075 61.4325 574.433 61.1954 575.815C60.7559 578.576 60.4497 581.515 60.1583 584.35L55.2196 584.774C54.8556 583.244 54.5704 581.696 54.3652 580.137C54.1627 578.591 54.0096 577.025 53.9504 575.435C53.8736 573.809 53.9 572.179 54.0294 570.556C54.1278 568.648 54.5347 566.768 55.2344 564.99Z" fill="#FF385C"/>
<path opacity="0.8" d="M55.2344 564.99C56.1234 562.95 57.3581 561.597 59.0224 560.165C62.3165 557.315 67.7491 552.9 70.7123 552.307L74.3126 563.928L64.85 567.42C62.9783 568.753 62.5585 569.632 62.0054 571.8C61.6745 573.075 61.4325 574.433 61.1954 575.815C60.7559 578.576 60.4497 581.515 60.1583 584.35L55.2196 584.774C54.8556 583.244 54.5704 581.696 54.3652 580.137C54.1627 578.591 54.0096 577.025 53.9504 575.435C53.8736 573.809 53.9 572.179 54.0294 570.556C54.1278 568.648 54.5347 566.768 55.2344 564.99Z" fill="#F0F0F0"/>
<path d="M53.7331 577.104H61.5263C61.5263 577.104 62.0646 589.372 58.894 590.488C55.6147 591.659 54.1529 583.712 53.7331 577.104Z" fill="#263238"/>
<path d="M59.3237 584.369L61.3288 582.117C61.3288 582.117 63.2005 587.239 62.0597 587.871C60.9189 588.503 59.9706 587.244 59.3237 584.369Z" fill="#263238"/>
<path opacity="0.2" d="M78.4117 552.298C81.6337 552.703 84.8331 553.272 87.9977 554.001C89.2077 554.317 90.3732 554.698 91.3757 555.048C89.2206 555.835 86.9014 556.063 84.6344 555.71C83.8246 555.576 83.0338 555.346 82.2787 555.024C80.1058 554.479 78.0705 553.486 76.3029 552.11C76.9992 552.144 77.7104 552.204 78.4117 552.298Z" fill="black"/>
<path d="M82.2441 543.176C82.2935 545.986 81.9379 551.078 79.7155 552.53C79.7155 552.53 79.6859 553.759 84.2788 554.564C88.0273 555.221 88.1557 554.031 88.1557 554.031C85.2567 552.767 85.7357 550.534 86.6395 548.519L82.2441 543.176Z" fill="#FFB573"/>
<path opacity="0.2" d="M84.0467 545.354L86.6444 548.519C86.4294 548.986 86.2542 549.47 86.1209 549.966C84.99 549.596 83.6269 548.045 83.7207 546.811C83.7419 546.31 83.8523 545.816 84.0467 545.354Z" fill="black"/>
<path d="M90.8325 542.87C92.161 541.067 93.6623 538.454 93.0154 537.16C92.3684 535.867 89.6719 535.111 88.4471 536.059C86.9112 537.259 88.0323 540.988 90.8325 542.87Z" fill="#263238"/>
<path d="M82.0713 539.339C81.9577 543.077 81.7009 545.265 83.4047 547.344C85.9679 550.475 90.714 549.191 91.9437 545.561C93.045 542.302 93.0401 536.711 89.5385 534.894C88.7664 534.491 87.9042 534.292 87.0337 534.317C86.1633 534.341 85.3135 534.588 84.5652 535.033C83.817 535.479 83.195 536.108 82.7585 536.862C82.322 537.615 82.0854 538.468 82.0713 539.339Z" fill="#FFB573"/>
<path d="M82.1996 542.83C83.859 541.348 85.8493 539.062 85.469 537.664C85.0888 536.267 82.5997 534.992 81.2119 535.689C79.4686 536.548 79.8291 540.43 82.1996 542.83Z" fill="#263238"/>
<path d="M84.0467 537.432C86.6 538.138 93.8204 539.561 92.8079 536.518C91.7955 533.476 87.8248 532.898 86.3876 533.555C84.9505 534.212 83.8146 532.474 83.8146 532.474C83.6072 532.968 84.7085 534.326 86.2839 534.548C87.8594 534.77 79.4784 533.313 81.6761 536.296C83.8739 539.279 84.0467 537.432 84.0467 537.432Z" fill="#263238"/>
<path d="M80.0118 543.289C80.2228 543.705 80.5138 544.074 80.8681 544.377C81.2223 544.68 81.6329 544.909 82.0762 545.053C83.2615 545.433 83.8986 544.381 83.6072 543.235C83.3454 542.203 82.4071 540.766 81.1971 540.889C80.9329 540.92 80.6805 541.017 80.4631 541.17C80.2457 541.323 80.0701 541.529 79.9523 541.767C79.8345 542.006 79.7782 542.27 79.7886 542.536C79.799 542.802 79.8757 543.061 80.0118 543.289Z" fill="#FFB573"/>
<path d="M87.6124 540.879C87.5828 541.181 87.7211 541.442 87.9186 541.462C88.1162 541.482 88.2989 541.25 88.3285 540.968C88.3582 540.687 88.2199 540.405 88.0223 540.39C87.8248 540.376 87.642 540.578 87.6124 540.879Z" fill="#263238"/>
<path d="M91.0349 541.195C91.0053 541.497 91.1436 541.758 91.3411 541.773C91.5387 541.788 91.7263 541.561 91.751 541.279C91.7757 540.998 91.6424 540.716 91.4448 540.697C91.2473 540.677 91.0645 540.889 91.0349 541.195Z" fill="#263238"/>
<path d="M89.9336 541.245C90.2095 542.203 90.6167 543.119 91.1436 543.966C90.9223 544.097 90.6745 544.178 90.4183 544.202C90.1621 544.226 89.9038 544.192 89.662 544.104L89.9336 541.245Z" fill="#ED893E"/>
<path d="M87.2075 544.247C87.6262 544.6 88.1438 544.814 88.6891 544.86C88.7127 544.86 88.7353 544.85 88.7519 544.834C88.7686 544.817 88.778 544.795 88.778 544.771C88.778 544.747 88.7686 544.725 88.7519 544.708C88.7353 544.691 88.7127 544.682 88.6891 544.682C88.3113 544.656 87.9448 544.542 87.6195 544.348C87.2943 544.154 87.0194 543.886 86.8173 543.566C86.8122 543.556 86.8049 543.546 86.796 543.539C86.7871 543.531 86.7768 543.526 86.7656 543.523C86.7545 543.519 86.7428 543.518 86.7313 543.52C86.7198 543.521 86.7087 543.525 86.6988 543.531C86.6779 543.542 86.6621 543.56 86.6547 543.582C86.6473 543.605 86.649 543.629 86.6593 543.65C86.8055 543.88 86.991 544.082 87.2075 544.247Z" fill="#263238"/>
<path d="M86.5852 539.64C86.6183 539.672 86.6626 539.69 86.7086 539.69C86.7547 539.69 86.799 539.672 86.8321 539.64C86.9776 539.47 87.1612 539.336 87.3681 539.25C87.5749 539.165 87.7991 539.129 88.0223 539.146C88.0457 539.15 88.0697 539.15 88.0929 539.144C88.1161 539.139 88.138 539.129 88.1573 539.116C88.1767 539.102 88.193 539.084 88.2055 539.064C88.2179 539.044 88.2262 539.021 88.2297 538.998C88.2369 538.951 88.2255 538.903 88.1978 538.864C88.1701 538.825 88.1284 538.799 88.0816 538.79C87.7991 538.762 87.5141 538.803 87.2503 538.907C86.9865 539.012 86.7517 539.179 86.5654 539.393C86.5488 539.409 86.5357 539.429 86.5267 539.451C86.5177 539.472 86.5131 539.495 86.5131 539.519C86.5131 539.542 86.5177 539.565 86.5267 539.587C86.5357 539.609 86.5488 539.628 86.5654 539.645L86.5852 539.64Z" fill="#263238"/>
<path d="M92.5413 540.114C92.5656 540.134 92.5949 540.148 92.6261 540.153C92.6574 540.158 92.6895 540.155 92.719 540.143C92.7411 540.136 92.7613 540.124 92.7786 540.108C92.7958 540.092 92.8097 540.073 92.8194 540.052C92.8291 540.031 92.8344 540.008 92.835 539.984C92.8355 539.961 92.8314 539.938 92.8228 539.916C92.7287 539.649 92.572 539.407 92.3659 539.212C92.1597 539.017 91.91 538.874 91.6375 538.795C91.6144 538.79 91.5907 538.79 91.5676 538.794C91.5444 538.799 91.5224 538.807 91.5027 538.82C91.4829 538.833 91.4659 538.85 91.4526 538.869C91.4393 538.889 91.43 538.91 91.4251 538.933C91.4203 538.956 91.42 538.98 91.4243 539.003C91.4286 539.026 91.4374 539.049 91.4503 539.068C91.4631 539.088 91.4797 539.105 91.4991 539.118C91.5185 539.132 91.5404 539.141 91.5634 539.146C91.778 539.21 91.9741 539.325 92.1355 539.481C92.297 539.636 92.4191 539.828 92.4919 540.04C92.5025 540.068 92.5194 540.093 92.5413 540.114Z" fill="#263238"/>
<path d="M73.9175 541.749C72.7619 547.858 76.3424 553.636 81.9873 554.989C82.2046 555.039 82.4269 555.083 82.6491 555.123C85.3707 555.588 88.1674 554.996 90.467 553.468C88.905 553.857 87.2705 553.847 85.7132 553.44C84.1559 553.033 82.7258 552.241 81.5538 551.138C80.3819 550.035 79.5057 548.655 79.0055 547.125C78.5054 545.595 78.3973 543.964 78.6912 542.381C78.9851 540.799 79.6715 539.315 80.6876 538.067C81.7037 536.819 83.0169 535.845 84.5069 535.236C85.9968 534.627 87.6158 534.402 89.2154 534.581C90.815 534.76 92.3441 535.338 93.6624 536.262C92.5564 534.776 91.0823 533.605 89.3855 532.864C88.624 532.536 87.8267 532.299 87.01 532.158C80.9798 531.111 75.1225 535.388 73.9175 541.749Z" fill="#FF385C"/>
<path opacity="0.8" d="M73.9175 541.749C72.7619 547.858 76.3424 553.636 81.9873 554.989C82.2046 555.039 82.4269 555.083 82.6491 555.123C85.3707 555.588 88.1674 554.996 90.467 553.468C88.905 553.857 87.2705 553.847 85.7132 553.44C84.1559 553.033 82.7258 552.241 81.5538 551.138C80.3819 550.035 79.5057 548.655 79.0055 547.125C78.5054 545.595 78.3973 543.964 78.6912 542.381C78.9851 540.799 79.6715 539.315 80.6876 538.067C81.7037 536.819 83.0169 535.845 84.5069 535.236C85.9968 534.627 87.6158 534.402 89.2154 534.581C90.815 534.76 92.3441 535.338 93.6624 536.262C92.5564 534.776 91.0823 533.605 89.3855 532.864C88.624 532.536 87.8267 532.299 87.01 532.158C80.9798 531.111 75.1225 535.388 73.9175 541.749Z" fill="#F0F0F0"/>
<path d="M76.1448 542.489C75.0632 547.952 77.5918 553.083 81.9626 554.989C82.6683 555.292 83.4078 555.509 84.1652 555.636C87.7309 556.219 91.267 554.723 93.7117 551.962C92.2775 552.987 90.5891 553.599 88.8309 553.729C87.0728 553.86 85.3126 553.504 83.7428 552.702C82.173 551.899 80.854 550.681 79.93 549.179C79.0061 547.678 78.5127 545.951 78.5038 544.188C78.4949 542.425 78.9709 540.694 79.8797 539.183C80.7885 537.672 82.0952 536.441 83.6568 535.622C85.2184 534.804 86.975 534.431 88.7344 534.544C90.4937 534.657 92.1883 535.251 93.6327 536.262C94.5684 536.91 95.3784 537.724 96.023 538.662C95.4457 537.239 94.5412 535.973 93.3828 534.966C92.2243 533.958 90.8447 533.238 89.3558 532.864C89.1434 532.815 88.931 532.775 88.7187 532.736C83.0589 531.792 77.419 536.168 76.1448 542.489Z" fill="#FF385C"/>
<path opacity="0.6" d="M76.1448 542.489C75.0632 547.952 77.5918 553.083 81.9626 554.989C82.6683 555.292 83.4078 555.509 84.1652 555.636C87.7309 556.219 91.267 554.723 93.7117 551.962C92.2775 552.987 90.5891 553.599 88.8309 553.729C87.0728 553.86 85.3126 553.504 83.7428 552.702C82.173 551.899 80.854 550.681 79.93 549.179C79.0061 547.678 78.5127 545.951 78.5038 544.188C78.4949 542.425 78.9709 540.694 79.8797 539.183C80.7885 537.672 82.0952 536.441 83.6568 535.622C85.2184 534.804 86.975 534.431 88.7344 534.544C90.4937 534.657 92.1883 535.251 93.6327 536.262C94.5684 536.91 95.3784 537.724 96.023 538.662C95.4457 537.239 94.5412 535.973 93.3828 534.966C92.2243 533.958 90.8447 533.238 89.3558 532.864C89.1434 532.815 88.931 532.775 88.7187 532.736C83.0589 531.792 77.419 536.168 76.1448 542.489Z" fill="#F0F0F0"/>
<path opacity="0.2" d="M78.5352 543.68C78.4446 545.579 78.9192 547.463 79.8992 549.093C80.8791 550.723 82.3203 552.025 84.0405 552.836C85.7607 553.647 87.6827 553.929 89.5635 553.647C91.4442 553.366 93.1992 552.533 94.6066 551.254C96.014 549.975 97.0106 548.308 97.4703 546.462C97.93 544.617 97.8322 542.677 97.1893 540.887C96.5464 539.097 95.3873 537.538 93.8584 536.407C92.3296 535.277 90.4997 534.624 88.6002 534.533C87.3387 534.473 86.0777 534.661 84.8891 535.088C83.7006 535.515 82.6077 536.172 81.6731 537.022C80.7384 537.871 79.9803 538.896 79.4418 540.039C78.9034 541.181 78.5953 542.418 78.5352 543.68Z" fill="#FF385C"/>
<path opacity="0.2" d="M97.7466 544.598C97.6248 547.146 96.4959 549.541 94.6084 551.256C92.7208 552.971 90.2291 553.866 87.6816 553.745C85.134 553.623 82.7391 552.494 81.0238 550.606C79.3085 548.719 78.4133 546.227 78.5351 543.68C82.8515 542.707 93.2919 542.025 97.7466 544.598Z" fill="#FF385C"/>
<path opacity="0.2" d="M77.0832 567.03C81.4891 567.294 85.8699 567.88 90.1904 568.783L90.4324 568.561L77.5524 559.745L77.3153 559.967C77.3153 559.967 77.2116 564.689 77.0832 567.03Z" fill="black"/>
<path d="M77.3202 566.807C81.7278 567.072 86.1102 567.658 90.4324 568.561C90.6744 566.195 90.8621 563.815 90.9806 561.414C86.5485 560.548 82.0617 559.99 77.5524 559.745C77.526 562.112 77.4486 564.466 77.3202 566.807Z" fill="#F0F0F0"/>
<path opacity="0.3" d="M80.1303 562.027C80.1313 562.201 80.182 562.371 80.2766 562.516C80.3712 562.662 80.5056 562.778 80.664 562.85C80.8223 562.921 80.9979 562.946 81.1699 562.921C81.3419 562.896 81.5031 562.822 81.6344 562.708C81.7657 562.595 81.8616 562.445 81.9107 562.279C81.9598 562.112 81.9601 561.935 81.9115 561.768C81.8628 561.601 81.7673 561.451 81.6364 561.337C81.5054 561.223 81.3443 561.149 81.1724 561.123C80.9151 561.108 80.6622 561.194 80.4675 561.363C80.2728 561.532 80.1518 561.77 80.1303 562.027Z" fill="#FF385C"/>
<path opacity="0.3" d="M80.0513 564.837C80.0522 565.011 80.1029 565.181 80.1976 565.327C80.2923 565.473 80.427 565.589 80.5856 565.661C80.7442 565.732 80.9201 565.757 81.0923 565.732C81.2645 565.706 81.4258 565.632 81.5571 565.518C81.6883 565.403 81.7839 565.254 81.8326 565.087C81.8812 564.919 81.8808 564.742 81.8315 564.575C81.7821 564.408 81.6858 564.259 81.5541 564.145C81.4224 564.031 81.2608 563.958 81.0885 563.933C80.832 563.919 80.5803 564.006 80.3867 564.175C80.1931 564.343 80.0728 564.581 80.0513 564.837Z" fill="#FF385C"/>
<path d="M88.8125 566.541C87.2157 566.255 85.6052 566.053 83.9874 565.933C85.0591 564.452 86.6642 561.918 86.6642 561.918C87.4656 563.418 88.1828 564.961 88.8125 566.541Z" fill="#FF385C"/>
</g>
<g clip-path="url(#clip1_245_217)">
<path fill-rule="evenodd" clip-rule="evenodd" d="M440.757 688.111C448.041 697.866 453.867 708.499 458.237 720.012C485.608 713.634 509.06 720.48 528.594 740.551C543.938 726.107 562.147 717.659 583.219 715.205C594.4 714.807 605.471 715.681 616.431 717.827C635.838 723.596 651.861 734.375 664.501 750.165C670.93 758.797 675.883 768.265 679.359 778.57C689.025 778.76 698.639 779.488 708.201 780.755C708.5 781.488 709.082 781.779 709.949 781.629C712.481 782.179 714.812 783.053 716.941 784.251C626.919 784.251 536.897 784.251 446.875 784.251C446.875 783.377 446.875 782.503 446.875 781.629C447.794 781.759 448.668 781.614 449.497 781.192C447.962 781.016 446.506 780.579 445.127 779.881C445.31 779.369 445.602 778.932 446.001 778.57C444.836 777.987 443.67 777.405 442.505 776.822C443.67 774.491 443.67 772.161 442.505 769.83C444.09 769.87 445.546 769.725 446.875 769.393C444.741 766.144 441.828 763.959 438.135 762.838C440.237 761.062 439.8 759.751 436.824 758.905C435.117 753.605 431.475 750.691 425.899 750.165C425.188 749.017 424.314 747.997 423.277 747.106C424.106 746.567 424.834 746.712 425.462 747.543C426.045 746.96 426.045 746.378 425.462 745.795C393.401 712.423 360.917 679.502 328.011 647.033C328.594 647.033 328.885 646.742 328.885 646.159C373.891 640.131 411.181 654.115 440.757 688.111Z" fill="#FF385C" fill-opacity="0.05"/>
<path fill-rule="evenodd" clip-rule="evenodd" d="M316.649 649.655C318.639 649.972 319.222 650.846 318.397 652.277C319.96 653.933 321.708 655.39 323.641 656.647C326.179 660.381 328.655 664.169 331.07 668.009C332.04 669.352 333.351 669.934 335.003 669.757C335.586 671.505 336.168 673.253 336.751 675.001C337.916 675.001 339.082 675.001 340.247 675.001C341.947 669.354 343.55 669.354 345.054 675.001C346.024 676.344 347.335 676.926 348.987 676.749C348.987 677.623 348.987 678.497 348.987 679.371C349.861 679.371 350.735 679.371 351.609 679.371C351.609 682.284 353.066 683.741 355.979 683.741C356.142 685.545 356.579 687.293 357.29 688.985C361.069 692.256 364.42 695.897 367.341 699.91C366.572 701.095 366.28 702.406 366.467 703.843C365.302 703.843 364.136 703.843 362.971 703.843C362.417 699.241 361.834 699.241 361.223 703.843C361.827 706.201 362.41 708.532 362.971 710.835C364.428 710.835 365.884 710.835 367.341 710.835C367.341 712 367.341 713.166 367.341 714.331C368.215 714.331 369.089 714.331 369.963 714.331C370.709 716.833 372.165 718.872 374.333 720.449C374.15 720.961 373.858 721.398 373.459 721.76C374.589 722.188 375.755 722.334 376.955 722.197C377.529 725.117 376.364 726.865 373.459 727.441C374.652 728.277 375.963 728.859 377.392 729.189C379.519 728.471 381.704 728.179 383.947 728.315C384.821 732.102 387.152 734.433 390.939 735.307C389.924 739.393 391.381 741.723 395.309 742.299C395.687 744.733 396.852 746.773 398.805 748.417C394.885 749.815 394.448 751.854 397.494 754.535C397.926 755.963 398.071 757.42 397.931 758.905C395.466 758.685 393.136 759.122 390.939 760.216C392.991 760.518 394.593 761.538 395.746 763.275C397.071 765.955 398.965 768.14 401.427 769.83C400.745 770.768 400.891 771.788 401.864 772.889C404.411 773.98 406.013 775.873 406.671 778.57C405.506 779.153 404.34 779.735 403.175 780.318C403.974 781.547 404.556 782.858 404.923 784.251C388.608 784.251 372.294 784.251 355.979 784.251C353.839 779.62 350.488 775.832 345.928 772.889C345.046 771.556 344.609 770.099 344.617 768.519C343.743 768.519 342.869 768.519 341.995 768.519C341.995 767.354 341.995 766.188 341.995 765.023C343.822 765.067 344.987 764.193 345.491 762.401C343.474 760.678 341.434 758.93 339.373 757.157C340.094 756.383 340.968 756.092 341.995 756.283C342.328 754.149 341.745 753.566 340.247 754.535C339.099 753.824 338.079 752.95 337.188 751.913C337.74 748.691 336.283 746.652 332.818 745.795C332.39 744.665 332.244 743.499 332.381 742.299C331.216 742.299 330.05 742.299 328.885 742.299C329.022 743.499 328.876 744.665 328.448 745.795C327.865 744.338 327.865 742.882 328.448 741.425C330.554 738.994 333.03 736.955 335.877 735.307C337.042 732.976 337.042 730.646 335.877 728.315C334.909 733.405 333.016 733.405 330.196 728.315C330.037 723.335 328.435 718.965 325.389 715.205C322.83 714.345 320.208 714.054 317.523 714.331C317.733 711.64 317.442 709.018 316.649 706.465C313.768 705.18 311.437 703.286 309.657 700.784C311.416 700.019 311.416 698.853 309.657 697.288C308.145 695.669 307.126 695.814 306.598 697.725C302.565 695.117 300.671 691.33 300.917 686.363C300.312 686.822 299.875 687.405 299.606 688.111C296.995 685.855 295.975 682.942 296.547 679.371C295.382 679.371 294.216 679.371 293.051 679.371C292.269 676.99 291.978 674.659 292.177 672.379C291.012 673.836 289.846 675.292 288.681 676.749C287.326 674.451 287.908 672.848 290.429 671.942C288.087 667.423 285.902 667.277 283.874 671.505C283.219 670.958 282.49 670.521 281.689 670.194C282.854 669.611 282.854 669.029 281.689 668.446C280.86 668.024 279.986 667.879 279.067 668.009C281.398 666.261 283.728 664.513 286.059 662.765C291.917 659.547 297.743 656.342 303.539 653.151C307.839 651.73 312.209 650.565 316.649 649.655Z" fill="#FF385C" fill-opacity="0.05"/>
<path fill-rule="evenodd" clip-rule="evenodd" d="M1277.17 662.765C1287.19 662.492 1297.09 663.366 1306.89 665.387C1316.67 668.165 1326.29 671.661 1335.73 675.875C1338.18 677.54 1340.8 678.996 1343.6 680.245C1351.68 685.021 1358.96 690.848 1365.45 697.725C1365.38 698.999 1364.94 700.165 1364.14 701.221C1362.86 700.8 1361.55 699.78 1360.2 698.162C1360.62 696.065 1359.74 694.317 1357.58 692.918C1356.33 693.19 1355.16 693.045 1354.09 692.481C1353.96 694.857 1353.96 697.479 1354.09 700.347C1355.25 700.347 1356.42 700.347 1357.58 700.347C1357.58 702.678 1357.58 705.008 1357.58 707.339C1358.75 707.339 1359.92 707.339 1361.08 707.339C1361.66 712 1362.24 716.662 1362.83 721.323C1363.99 721.323 1365.16 721.323 1366.32 721.323C1366.32 723.654 1366.32 725.984 1366.32 728.315C1367.49 728.315 1368.66 728.315 1369.82 728.315C1369.82 730.646 1369.82 732.976 1369.82 735.307C1370.98 735.307 1372.15 735.307 1373.31 735.307C1373.56 737.883 1373.26 740.36 1372.44 742.736C1373.17 744.63 1374.48 745.941 1376.37 746.669C1376.79 747.497 1376.94 748.371 1376.81 749.291C1377.97 749.291 1379.14 749.291 1380.31 749.291C1380.89 753.952 1381.47 758.614 1382.05 763.275C1383.22 763.275 1384.39 763.275 1385.55 763.275C1386.14 767.936 1386.71 772.598 1387.3 777.259C1388.46 777.259 1389.63 777.259 1390.79 777.259C1390.79 779.59 1390.79 781.92 1390.79 784.251C1363.99 784.251 1337.19 784.251 1310.39 784.251C1307.66 777.204 1305.04 770.212 1302.52 763.275C1301.65 763.275 1300.77 763.275 1299.9 763.275C1300.33 758.85 1299.02 755.062 1295.97 751.913C1295.68 750.165 1295.38 748.417 1295.09 746.669C1292.29 740.725 1289.23 734.899 1285.91 729.189C1287.76 726.764 1288.05 724.142 1286.79 721.323C1286.11 722.397 1285.67 723.562 1285.48 724.819C1281.57 718.464 1278.51 711.763 1276.3 704.717C1274.48 704.692 1272.87 705.275 1271.49 706.465C1270.26 705.231 1268.8 704.357 1267.12 703.843C1262.58 704.907 1258.07 705.199 1253.58 704.717C1251.76 700.795 1249.72 697.007 1247.46 693.355C1246.6 691.095 1246.31 688.764 1246.58 686.363C1245.71 686.363 1244.84 686.363 1243.96 686.363C1243.96 685.198 1243.96 684.032 1243.96 682.867C1241.38 682.625 1238.91 682.916 1236.53 683.741C1235.93 681.651 1235.06 681.651 1233.91 683.741C1232.16 681.102 1230.55 678.334 1229.1 675.438C1229.94 674.899 1230.66 675.044 1231.29 675.875C1231.73 674.855 1232.45 674.127 1233.47 673.69C1232.82 673.103 1232.52 672.375 1232.6 671.505C1233.38 670.972 1234.25 670.681 1235.22 670.631C1236.28 670.253 1237.15 669.67 1237.84 668.883C1245.61 666.723 1253.47 664.975 1261.44 663.639C1266.68 663.232 1271.92 662.941 1277.17 662.765Z" fill="#FF385C" fill-opacity="0.05"/>
<path fill-rule="evenodd" clip-rule="evenodd" d="M279.067 668.009C279.986 667.879 280.86 668.024 281.689 668.446C282.854 669.029 282.854 669.611 281.689 670.194C282.49 670.521 283.219 670.958 283.874 671.505C285.902 667.278 288.087 667.423 290.429 671.942C287.908 672.848 287.326 674.451 288.681 676.749C289.846 675.292 291.012 673.836 292.177 672.379C291.978 674.659 292.269 676.99 293.051 679.371C294.216 679.371 295.382 679.371 296.547 679.371C295.975 682.942 296.995 685.855 299.606 688.111C299.875 687.405 300.312 686.822 300.917 686.363C300.671 691.33 302.565 695.117 306.598 697.725C307.126 695.815 308.145 695.669 309.657 697.288C311.416 698.853 311.416 700.019 309.657 700.784C311.437 703.286 313.768 705.18 316.649 706.465C317.442 709.018 317.733 711.64 317.523 714.331C320.208 714.054 322.83 714.345 325.389 715.205C328.435 718.965 330.037 723.335 330.196 728.315C333.016 733.405 334.91 733.405 335.877 728.315C337.042 730.646 337.042 732.976 335.877 735.307C333.03 736.955 330.554 738.994 328.448 741.425C327.865 742.882 327.865 744.338 328.448 745.795C328.876 744.665 329.022 743.499 328.885 742.299C330.05 742.299 331.216 742.299 332.381 742.299C332.244 743.499 332.39 744.665 332.818 745.795C336.283 746.652 337.74 748.691 337.188 751.913C338.079 752.951 339.099 753.825 340.247 754.535C341.745 753.566 342.328 754.149 341.995 756.283C340.968 756.092 340.094 756.383 339.373 757.157C341.434 758.93 343.474 760.678 345.491 762.401C344.987 764.193 343.822 765.067 341.995 765.023C341.995 766.188 341.995 767.354 341.995 768.519C342.869 768.519 343.743 768.519 344.617 768.519C344.609 770.099 345.046 771.556 345.928 772.889C350.488 775.832 353.839 779.62 355.979 784.251C332.672 784.251 309.366 784.251 286.059 784.251C285.421 782.901 284.256 782.173 282.563 782.066C284.709 781.722 286.457 780.703 287.807 779.007C286.901 777.101 285.736 777.101 284.311 779.007C283.728 778.716 283.146 778.424 282.563 778.133C283.833 775.688 284.707 773.066 285.185 770.267C287.61 772.109 290.232 772.401 293.051 771.141C290.688 769.621 288.503 767.873 286.496 765.897C286.074 765.069 285.929 764.195 286.059 763.275C282.563 763.275 279.067 763.275 275.571 763.275C275.571 760.944 275.571 758.614 275.571 756.283C274.406 756.283 273.24 756.283 272.075 756.283C272.075 755.118 272.075 753.952 272.075 752.787C274.406 752.787 276.736 752.787 279.067 752.787C278.838 751.495 279.129 750.33 279.941 749.291C285.768 746.96 285.768 744.63 279.941 742.299C279.129 741.26 278.838 740.095 279.067 738.803C278.148 738.933 277.274 738.788 276.445 738.366C275.777 736.558 275.34 734.664 275.134 732.685C274.25 731.954 273.23 731.662 272.075 731.811C272.075 730.646 272.075 729.48 272.075 728.315C270.91 728.315 269.744 728.315 268.579 728.315C268.87 725.693 267.705 724.528 265.083 724.819C262.752 720.158 260.422 715.496 258.091 710.835C255.469 711.126 254.304 709.961 254.595 707.339C253.158 707.152 251.847 707.444 250.662 708.213C250.467 706.132 249.447 704.676 247.603 703.843C248.989 701.946 250.155 699.907 251.099 697.725C253.766 694.471 256.097 690.975 258.091 687.237C261.2 684.234 264.114 681.029 266.831 677.623C270.91 674.418 274.988 671.214 279.067 668.009Z" fill="#FF385C" fill-opacity="0.05"/>
<path fill-rule="evenodd" clip-rule="evenodd" d="M1232.6 671.505C1232.52 672.375 1232.82 673.103 1233.47 673.69C1232.45 674.127 1231.73 674.855 1231.29 675.875C1230.66 675.044 1229.94 674.899 1229.1 675.438C1230.55 678.334 1232.16 681.102 1233.91 683.741C1235.06 681.651 1235.93 681.651 1236.53 683.741C1238.91 682.916 1241.38 682.625 1243.96 682.867C1243.96 684.032 1243.96 685.198 1243.96 686.363C1244.84 686.363 1245.71 686.363 1246.58 686.363C1246.31 688.764 1246.6 691.095 1247.46 693.355C1249.72 697.007 1251.76 700.795 1253.58 704.717C1258.07 705.198 1262.58 704.907 1267.12 703.843C1268.8 704.357 1270.26 705.231 1271.49 706.465C1272.87 705.275 1274.48 704.692 1276.3 704.717C1278.51 711.763 1281.57 718.464 1285.48 724.819C1285.67 723.562 1286.11 722.397 1286.79 721.323C1288.05 724.142 1287.76 726.764 1285.91 729.189C1289.23 734.899 1292.29 740.725 1295.09 746.669C1295.38 748.417 1295.68 750.165 1295.97 751.913C1299.02 755.062 1300.33 758.85 1299.9 763.275C1300.77 763.275 1301.65 763.275 1302.52 763.275C1305.04 770.212 1307.66 777.204 1310.39 784.251C1275.43 784.251 1240.47 784.251 1205.51 784.251C1202.97 777.958 1200.35 771.695 1197.64 765.46C1198.23 764.877 1198.8 764.295 1199.39 763.712C1197.96 763.28 1196.5 763.135 1195.02 763.275C1194.84 761.16 1195.13 759.121 1195.89 757.157C1195.3 754.569 1194.56 754.277 1193.71 756.283C1192.57 754.126 1191.26 752.087 1189.77 750.165C1190.65 749.582 1191.52 749 1192.4 748.417C1191.07 746.944 1189.62 745.633 1188.03 744.484C1190.08 743.009 1190.22 741.406 1188.46 739.677C1188.18 740.551 1187.88 741.425 1187.59 742.299C1185.66 737.814 1183.47 733.444 1181.03 729.189C1181.76 728.358 1181.9 727.484 1181.47 726.567C1178.8 725.736 1176.04 725.445 1173.17 725.693C1173.02 724.537 1173.31 723.517 1174.04 722.634C1173.53 722.228 1172.94 722.082 1172.29 722.197C1174.79 717.071 1178 712.41 1181.91 708.213C1188.35 700.899 1195.34 694.198 1202.88 688.111C1212.25 681.677 1222.16 676.141 1232.6 671.505Z" fill="#FF385C" fill-opacity="0.05"/>
<path fill-rule="evenodd" clip-rule="evenodd" d="M854.159 696.851C857.192 697.485 860.102 698.651 862.899 700.347C861.885 701.016 861.011 701.89 860.277 702.969C859.237 703.781 858.075 704.072 856.781 703.843C857.043 705.682 856.755 707.43 855.907 709.087C851.729 714.24 848.233 719.776 845.419 725.693C844.545 725.693 843.671 725.693 842.797 725.693C842.797 726.567 842.797 727.441 842.797 728.315C841.337 728.315 839.887 728.315 838.427 728.315C838.427 729.189 838.427 730.063 838.427 730.937C826.777 732.685 815.117 734.433 803.467 736.181C803.467 737.055 803.467 737.929 803.467 738.803C802.549 738.673 801.675 738.818 800.845 739.24C800.198 740.8 799.613 742.402 799.097 744.047C798.38 744.821 797.506 745.112 796.475 744.921C795.793 748.702 793.757 751.761 790.357 754.098C783.147 755.618 775.866 756.346 768.507 756.283C768.507 757.448 768.507 758.614 768.507 759.779C758.832 760.734 749.218 762.19 739.665 764.149C740.189 766.094 740.478 767.987 740.539 769.83C740.102 769.976 739.665 770.121 739.228 770.267C737.664 769.568 736.213 769.276 734.858 769.393C734.709 769.102 734.57 768.81 734.421 768.519C735.583 767.936 736.755 767.354 737.917 766.771C737.611 765.726 737.174 765.726 736.606 766.771C735.916 765.683 735.479 764.518 735.295 763.275C738.363 751.315 743.755 740.535 751.464 730.937C767.406 713.381 786.782 701.436 809.585 695.103C824.548 693.504 839.406 694.087 854.159 696.851Z" fill="#FF385C" fill-opacity="0.05"/>
<path fill-rule="evenodd" clip-rule="evenodd" d="M92.905 695.103C110.72 696.477 127.035 702.012 141.849 711.709C149.399 717.366 155.954 724.067 161.514 731.811C161.849 731.325 162.286 731.034 162.825 730.937C162.71 731.583 162.856 732.166 163.262 732.685C180.529 749.806 197.572 766.994 214.391 784.251C117.377 784.251 20.363 784.251 -76.651 784.251C-73.4835 778.462 -69.1135 773.801 -63.541 770.267C-59.2514 767.687 -54.8814 765.356 -50.431 763.275C-32.0464 757.694 -15.0034 760.316 0.697998 771.141C1.7599 764.271 3.5079 757.57 5.94199 751.039C22.7455 713.847 51.7335 695.201 92.905 695.103Z" fill="#FF385C" fill-opacity="0.05"/>
<path fill-rule="evenodd" clip-rule="evenodd" d="M862.899 700.347C876.944 704.801 888.603 712.667 897.859 723.945C900.796 727.627 903.418 731.56 905.725 735.744C930.468 730.01 952.169 735.691 970.838 752.787C977.612 743.242 985.915 735.376 995.747 729.189C1005.98 723.156 1017.06 719.951 1028.96 719.575C1055.55 719.977 1076.38 731.047 1091.45 752.787C1093.82 750.847 1096.3 749.099 1098.88 747.543C1099.06 748.786 1099.5 749.951 1100.19 751.039C1100.78 752.204 1101.35 752.204 1101.94 751.039C1102.51 756.923 1104.56 762.167 1108.06 766.771C1109.81 772.907 1112.29 778.734 1115.49 784.251C987.295 784.251 859.115 784.251 730.925 784.251C731.458 776.964 732.909 769.972 735.295 763.275C735.479 764.518 735.916 765.683 736.606 766.771C737.174 765.726 737.611 765.726 737.917 766.771C736.755 767.354 735.583 767.936 734.421 768.519C734.57 768.81 734.709 769.102 734.858 769.393C736.213 769.276 737.664 769.568 739.228 770.267C739.665 770.121 740.102 769.976 740.539 769.83C740.478 767.987 740.189 766.094 739.665 764.149C749.218 762.191 758.832 760.734 768.507 759.779C768.507 758.614 768.507 757.448 768.507 756.283C775.866 756.346 783.147 755.618 790.357 754.098C793.757 751.761 795.793 748.702 796.475 744.921C797.506 745.113 798.38 744.822 799.097 744.047C799.613 742.402 800.198 740.8 800.845 739.24C801.675 738.818 802.549 738.673 803.467 738.803C803.467 737.929 803.467 737.055 803.467 736.181C815.117 734.433 826.777 732.685 838.427 730.937C838.427 730.063 838.427 729.189 838.427 728.315C839.887 728.315 841.337 728.315 842.797 728.315C842.797 727.441 842.797 726.567 842.797 725.693C843.671 725.693 844.545 725.693 845.419 725.693C848.233 719.776 851.729 714.24 855.907 709.087C856.755 707.43 857.043 705.682 856.781 703.843C858.075 704.072 859.237 703.781 860.277 702.969C861.011 701.89 861.885 701.016 862.899 700.347Z" fill="#FF385C" fill-opacity="0.05"/>
<path fill-rule="evenodd" clip-rule="evenodd" d="M247.603 703.843C249.447 704.676 250.467 706.132 250.662 708.213C251.847 707.444 253.158 707.152 254.595 707.339C254.304 709.961 255.469 711.126 258.091 710.835C260.422 715.496 262.752 720.158 265.083 724.819C267.705 724.528 268.87 725.693 268.579 728.315C269.744 728.315 270.91 728.315 272.075 728.315C272.075 729.48 272.075 730.646 272.075 731.811C273.23 731.662 274.25 731.953 275.134 732.685C275.34 734.664 275.777 736.558 276.445 738.366C277.274 738.788 278.148 738.933 279.067 738.803C278.838 740.095 279.129 741.26 279.941 742.299C285.768 744.63 285.768 746.96 279.941 749.291C279.129 750.33 278.838 751.495 279.067 752.787C276.736 752.787 274.406 752.787 272.075 752.787C272.075 753.952 272.075 755.118 272.075 756.283C273.24 756.283 274.406 756.283 275.571 756.283C275.571 758.614 275.571 760.944 275.571 763.275C279.067 763.275 282.563 763.275 286.059 763.275C285.929 764.194 286.074 765.068 286.496 765.897C288.503 767.873 290.688 769.621 293.051 771.141C290.232 772.4 287.61 772.109 285.185 770.267C284.707 773.066 283.833 775.688 282.563 778.133C283.146 778.424 283.728 778.716 284.311 779.007C285.736 777.101 286.901 777.101 287.807 779.007C286.457 780.703 284.709 781.722 282.563 782.066C284.256 782.173 285.421 782.901 286.059 784.251C262.17 784.251 238.28 784.251 214.391 784.251C197.572 766.994 180.529 749.806 163.262 732.685C162.856 732.166 162.71 731.583 162.825 730.937C165.447 728.606 168.069 726.276 170.691 723.945C174.999 721.957 179.078 719.627 182.927 716.953C189.61 714.328 196.311 711.997 203.029 709.961C212.328 709.196 221.65 708.904 230.997 709.087C232.162 709.087 233.328 709.087 234.493 709.087C237.572 710.474 240.777 710.911 244.107 710.398C245.394 708.258 246.56 706.073 247.603 703.843Z" fill="#FF385C" fill-opacity="0.05"/>
<path fill-rule="evenodd" clip-rule="evenodd" d="M1365.45 697.725C1372.19 703.587 1378.31 709.996 1383.8 716.953C1392.22 709.979 1401.83 705.609 1412.65 703.843C1425.24 701.937 1437.34 703.685 1448.92 709.087C1450.31 708.588 1451.34 707.714 1451.98 706.465C1452.73 707.603 1453.16 708.768 1453.29 709.961C1451.86 711.123 1450.55 711.705 1449.35 711.709C1450.76 712.519 1452.22 713.248 1453.72 713.894C1449.05 714.986 1444.68 713.966 1440.61 710.835C1440.32 711.126 1440.03 711.418 1439.74 711.709C1440.97 712.358 1442.13 713.087 1443.24 713.894C1442.32 714.324 1441.44 714.179 1440.61 713.457C1439.76 716.016 1439.46 718.638 1439.74 721.323C1440.9 721.323 1442.07 721.323 1443.24 721.323C1443.24 723.654 1443.24 725.984 1443.24 728.315C1444.4 728.315 1445.57 728.315 1446.73 728.315C1447.32 732.976 1447.89 737.638 1448.48 742.299C1450.23 742.299 1451.98 742.299 1453.72 742.299C1454.31 746.96 1454.89 751.622 1455.47 756.283C1457.22 756.283 1458.97 756.283 1460.72 756.283C1460.72 760.944 1460.72 765.606 1460.72 770.267C1463.05 770.267 1465.37 770.267 1467.71 770.267C1467.71 774.928 1467.71 779.59 1467.71 784.251C1442.07 784.251 1416.43 784.251 1390.8 784.251C1390.8 781.92 1390.8 779.59 1390.8 777.259C1389.63 777.259 1388.46 777.259 1387.3 777.259C1386.71 772.598 1386.14 767.936 1385.55 763.275C1384.39 763.275 1383.22 763.275 1382.06 763.275C1381.47 758.614 1380.89 753.952 1380.31 749.291C1379.14 749.291 1377.97 749.291 1376.81 749.291C1376.94 748.372 1376.79 747.498 1376.37 746.669C1374.48 745.941 1373.17 744.63 1372.44 742.736C1373.26 740.36 1373.56 737.884 1373.32 735.307C1372.15 735.307 1370.98 735.307 1369.82 735.307C1369.82 732.976 1369.82 730.646 1369.82 728.315C1368.66 728.315 1367.49 728.315 1366.32 728.315C1366.32 725.984 1366.32 723.654 1366.32 721.323C1365.16 721.323 1363.99 721.323 1362.83 721.323C1362.24 716.662 1361.66 712 1361.08 707.339C1359.92 707.339 1358.75 707.339 1357.58 707.339C1357.58 705.008 1357.58 702.678 1357.58 700.347C1356.42 700.347 1355.25 700.347 1354.09 700.347C1353.96 697.479 1353.96 694.857 1354.09 692.481C1355.16 693.045 1356.33 693.19 1357.58 692.918C1359.74 694.317 1360.62 696.065 1360.21 698.162C1361.55 699.78 1362.86 700.8 1364.14 701.221C1364.94 700.165 1365.38 698.999 1365.45 697.725Z" fill="#FF385C" fill-opacity="0.05"/>
<path fill-rule="evenodd" clip-rule="evenodd" d="M328.011 647.033C360.917 679.502 393.401 712.423 425.462 745.795C426.045 746.378 426.045 746.96 425.462 747.543C424.834 746.712 424.106 746.567 423.277 747.106C424.314 747.997 425.188 749.017 425.899 750.165C431.475 750.691 435.117 753.605 436.824 758.905C439.8 759.751 440.237 761.062 438.135 762.838C441.828 763.958 444.741 766.143 446.875 769.393C445.546 769.725 444.09 769.87 442.505 769.83C443.67 772.161 443.67 774.491 442.505 776.822C443.67 777.405 444.836 777.987 446.001 778.57C445.602 778.932 445.31 779.369 445.127 779.881C446.506 780.578 447.962 781.015 449.497 781.192C448.668 781.614 447.794 781.759 446.875 781.629C446.875 782.503 446.875 783.377 446.875 784.251C432.891 784.251 418.907 784.251 404.923 784.251C404.556 782.858 403.974 781.547 403.175 780.318C404.34 779.735 405.506 779.153 406.671 778.57C406.013 775.873 404.411 773.98 401.864 772.889C400.891 771.788 400.745 770.768 401.427 769.83C398.965 768.14 397.071 765.955 395.746 763.275C394.593 761.538 392.991 760.518 390.939 760.216C393.136 759.122 395.466 758.685 397.931 758.905C398.071 757.42 397.926 755.963 397.494 754.535C394.448 751.854 394.885 749.815 398.805 748.417C396.852 746.773 395.687 744.733 395.309 742.299C391.381 741.723 389.924 739.393 390.939 735.307C387.152 734.433 384.821 732.102 383.947 728.315C381.704 728.179 379.519 728.471 377.392 729.189C375.963 728.859 374.652 728.277 373.459 727.441C376.364 726.865 377.529 725.117 376.955 722.197C375.755 722.334 374.589 722.188 373.459 721.76C373.858 721.398 374.15 720.961 374.333 720.449C372.165 718.872 370.708 716.833 369.963 714.331C369.089 714.331 368.215 714.331 367.341 714.331C367.341 713.166 367.341 712 367.341 710.835C365.884 710.835 364.428 710.835 362.971 710.835C362.41 708.532 361.827 706.201 361.223 703.843C361.834 699.24 362.417 699.24 362.971 703.843C364.136 703.843 365.302 703.843 366.467 703.843C366.28 702.406 366.572 701.095 367.341 699.91C364.42 695.897 361.069 692.255 357.29 688.985C356.579 687.293 356.142 685.545 355.979 683.741C353.066 683.741 351.609 682.284 351.609 679.371C350.735 679.371 349.861 679.371 348.987 679.371C348.987 678.497 348.987 677.623 348.987 676.749C347.335 676.926 346.024 676.344 345.054 675.001C343.55 669.354 341.947 669.354 340.247 675.001C339.082 675.001 337.916 675.001 336.751 675.001C336.168 673.253 335.586 671.505 335.003 669.757C333.351 669.934 332.04 669.352 331.07 668.009C328.655 664.169 326.179 660.381 323.641 656.647C321.708 655.39 319.96 653.933 318.397 652.277C319.222 650.846 318.639 649.972 316.649 649.655C320.158 648.018 323.946 647.144 328.011 647.033Z" fill="#FF385C" fill-opacity="0.05"/>
<path fill-rule="evenodd" clip-rule="evenodd" d="M1172.29 722.197C1172.94 722.082 1173.53 722.228 1174.04 722.634C1173.31 723.518 1173.02 724.538 1173.17 725.693C1176.04 725.445 1178.8 725.736 1181.47 726.567C1181.9 727.484 1181.76 728.358 1181.03 729.189C1183.47 733.444 1185.66 737.814 1187.59 742.299C1187.88 741.425 1188.18 740.551 1188.46 739.677C1190.22 741.406 1190.08 743.009 1188.03 744.484C1189.62 745.633 1191.07 746.944 1192.4 748.417C1191.52 749 1190.65 749.582 1189.77 750.165C1191.26 752.087 1192.57 754.126 1193.71 756.283C1194.56 754.277 1195.3 754.569 1195.89 757.157C1195.13 759.121 1194.84 761.16 1195.02 763.275C1196.5 763.135 1197.96 763.28 1199.39 763.712C1198.8 764.295 1198.23 764.877 1197.64 765.46C1200.35 771.695 1202.97 777.958 1205.51 784.251C1175.5 784.251 1145.49 784.251 1115.48 784.251C1112.29 778.733 1109.81 772.906 1108.06 766.771C1104.56 762.167 1102.51 756.923 1101.94 751.039C1101.35 752.204 1100.78 752.204 1100.19 751.039C1099.5 749.951 1099.06 748.786 1098.88 747.543C1100.48 746.889 1101.94 746.015 1103.25 744.921C1107.25 743.003 1111.33 741.255 1115.48 739.677C1122 737.44 1128.71 735.983 1135.59 735.307C1144.55 734.953 1153.43 735.535 1162.24 737.055C1164.28 734.726 1165.89 732.104 1167.05 729.189C1168.47 726.611 1170.21 724.281 1172.29 722.197Z" fill="#FF385C" fill-opacity="0.05"/>
</g>
</g>
<defs>
<filter id="filter0_f_245_217" x="-373" y="-237" width="936" height="929" filterUnits="userSpaceOnUse" color-interpolation-filters="sRGB">
<feFlood flood-opacity="0" result="BackgroundImageFix"/>
<feBlend mode="normal" in="SourceGraphic" in2="BackgroundImageFix" result="shape"/>
<feGaussianBlur stdDeviation="200" result="effect1_foregroundBlur_245_217"/>
</filter>
<filter id="filter1_f_245_217" x="737" y="-7" width="936" height="929" filterUnits="userSpaceOnUse" color-interpolation-filters="sRGB">
<feFlood flood-opacity="0" result="BackgroundImageFix"/>
<feBlend mode="normal" in="SourceGraphic" in2="BackgroundImageFix" result="shape"/>
<feGaussianBlur stdDeviation="200" result="effect1_foregroundBlur_245_217"/>
</filter>
<filter id="filter2_f_245_217" x="255" y="-108" width="936" height="929" filterUnits="userSpaceOnUse" color-interpolation-filters="sRGB">
<feFlood flood-opacity="0" result="BackgroundImageFix"/>
<feBlend mode="normal" in="SourceGraphic" in2="BackgroundImageFix" result="shape"/>
<feGaussianBlur stdDeviation="200" result="effect1_foregroundBlur_245_217"/>
</filter>
<filter id="filter3_f_245_217" x="-109" y="-197" width="936" height="929" filterUnits="userSpaceOnUse" color-interpolation-filters="sRGB">
<feFlood flood-opacity="0" result="BackgroundImageFix"/>
<feBlend mode="normal" in="SourceGraphic" in2="BackgroundImageFix" result="shape"/>
<feGaussianBlur stdDeviation="200" result="effect1_foregroundBlur_245_217"/>
</filter>
<clipPath id="clip0_245_217">
<rect width="1440" height="785" fill="white"/>
</clipPath>
<clipPath id="clip1_245_217">
<rect width="1440" height="155" fill="white" transform="translate(0 630)"/>
</clipPath>
</defs>
</svg>
