<svg width="363" height="101" viewBox="0 0 363 101" fill="none" xmlns="http://www.w3.org/2000/svg">
<g clip-path="url(#clip0_245_666)">
<path d="M21.07 71.3775C19.8323 70.1403 19.3662 70.7619 19.0909 71.0375C11.9637 78.1647 5.63625 95.3616 8.98129 93.6819C21.1586 87.5677 23.1876 89.3881 30.3145 82.2614C30.5901 81.9858 31.2236 81.5316 29.9499 80.2577L21.07 71.3775Z" fill="black"/>
<path d="M59.4912 71.2822C59.1682 70.2543 59.8449 69.759 60.1297 69.4516C75.8601 52.4686 85.8575 29.8419 78.4489 22.4329C71.0792 15.0637 49.1504 25.3532 32.172 40.9702C31.8362 41.2795 31.1741 41.8654 29.9897 41.6181L24.6999 40.3585C23.2312 40.0092 21.156 40.5963 20.0885 41.6639L0.678559 61.0735C-0.388992 62.1413 -0.0421476 63.2067 1.44941 63.4408L15.488 65.647C16.9795 65.8816 19.0732 65.1999 20.1406 64.1321C20.1406 64.1321 20.8649 63.4058 21.5927 64.1333C25.6078 68.1479 33.069 75.6091 36.8942 79.4346C37.6546 80.1948 36.9264 80.9179 36.9264 80.9179C35.8586 81.9857 35.1771 84.0789 35.4117 85.5707L37.6176 99.6091C37.852 101.101 38.9174 101.448 39.9849 100.38L59.3951 80.97C60.4624 79.9024 61.0497 77.8277 60.6999 76.359L59.4912 71.2822ZM55.1456 46.2059C51.858 42.9183 51.858 37.5886 55.1456 34.3015C58.4329 31.0139 63.7626 31.0139 67.0505 34.3015C70.3376 37.5884 70.3376 42.9183 67.0505 46.2057C63.7626 49.4933 58.4327 49.4933 55.1456 46.2059Z" fill="black"/>
</g>
<g clip-path="url(#clip1_245_666)">
<path d="M21.9995 28C21.9995 26.0633 21.6262 24.2433 20.8795 22.54C20.1562 20.8367 19.1645 19.355 17.9045 18.095C16.6445 16.835 15.1629 15.8433 13.4595 15.12C11.7562 14.3733 9.93621 14 7.99954 14C9.93621 14 11.7562 13.6383 13.4595 12.915C15.1629 12.1683 16.6445 11.165 17.9045 9.905C19.1645 8.645 20.1562 7.16333 20.8795 5.46C21.6262 3.75667 21.9995 1.93667 21.9995 0C21.9995 1.93667 22.3612 3.75667 23.0845 5.46C23.8312 7.16333 24.8345 8.645 26.0945 9.905C27.3545 11.165 28.8362 12.1683 30.5395 12.915C32.2428 13.6383 34.0628 14 35.9995 14C34.0628 14 32.2428 14.3733 30.5395 15.12C28.8362 15.8433 27.3545 16.835 26.0945 18.095C24.8345 19.355 23.8312 20.8367 23.0845 22.54C22.3612 24.2433 21.9995 26.0633 21.9995 28Z" fill="#FF385C"/>
</g>
<path d="M142.557 76.5947H115.68V35.4566H124.127V69.2173H142.557V76.5947ZM171.519 76.5947H164.662L164.251 73.3311C163.245 74.5378 162.002 75.4794 160.521 76.1559C159.04 76.8141 157.413 77.1432 155.639 77.1432C153.719 77.1432 152.01 76.7776 150.511 76.0462C149.011 75.2966 147.832 74.2727 146.973 72.9746C146.113 71.6582 145.684 70.168 145.684 68.5042C145.684 66.749 146.15 65.204 147.082 63.8693C148.015 62.5346 149.295 61.4925 150.922 60.7428C152.568 59.9749 154.432 59.591 156.517 59.591C157.742 59.591 158.967 59.7281 160.192 60.0023C161.435 60.2766 162.587 60.6606 163.647 61.1542V60.4412C163.647 59.3441 163.337 58.4025 162.715 57.6163C162.112 56.8119 161.271 56.1902 160.192 55.7514C159.131 55.3126 157.943 55.0932 156.627 55.0932C155.365 55.0932 154.113 55.2943 152.869 55.6966C151.644 56.0988 150.511 56.7022 149.468 57.5066L147.329 51.5005C149.176 50.5497 151.041 49.8367 152.924 49.3613C154.826 48.8676 156.663 48.6208 158.437 48.6208C161.106 48.6208 163.419 49.151 165.375 50.2115C167.332 51.2536 168.84 52.7346 169.9 54.6544C170.979 56.5559 171.519 58.8139 171.519 61.4285V76.5947ZM157.367 71.0822C158.409 71.0822 159.406 70.8537 160.356 70.3966C161.307 69.9395 162.075 69.3178 162.66 68.5317C163.263 67.7455 163.583 66.877 163.62 65.9262V65.7343C162.816 65.1858 161.92 64.7652 160.932 64.4727C159.963 64.1619 158.976 64.0065 157.97 64.0065C156.471 64.0065 155.246 64.3356 154.295 64.9938C153.345 65.652 152.869 66.5022 152.869 67.5443C152.869 68.2208 153.061 68.8333 153.445 69.3818C153.847 69.9121 154.387 70.3326 155.063 70.6434C155.74 70.9359 156.508 71.0822 157.367 71.0822ZM204.484 76.5947H198.094L197.82 72.2067C196.85 73.8156 195.561 75.0406 193.953 75.8817C192.362 76.7227 190.497 77.1432 188.358 77.1432C184.847 77.1432 182.096 76.0645 180.103 73.907C178.11 71.7496 177.113 68.7876 177.113 65.0212V49.1693H184.984V63.2111C184.984 65.3503 185.487 67.0324 186.493 68.2574C187.517 69.4641 188.906 70.0675 190.661 70.0675C192.49 70.0675 193.934 69.4367 194.995 68.1751C196.073 66.8953 196.613 65.1675 196.613 62.9917V49.1693H204.484V76.5947ZM238.546 76.5947H230.675V62.5529C230.675 60.4137 230.163 58.7408 229.139 57.5341C228.134 56.3091 226.753 55.6966 224.998 55.6966C223.17 55.6966 221.716 56.3365 220.637 57.6163C219.577 58.8779 219.047 60.5966 219.047 62.7723V76.5947H211.176V49.1693H217.538L217.813 53.5574C218.8 51.9484 220.089 50.7234 221.68 49.8824C223.27 49.0413 225.144 48.6208 227.302 48.6208C230.794 48.6208 233.537 49.6995 235.529 51.857C237.541 53.9962 238.546 56.9581 238.546 60.7428V76.5947ZM268.988 72.2341C267.654 73.7699 266.017 74.9766 264.079 75.8542C262.141 76.7136 260.011 77.1432 257.689 77.1432C254.874 77.1432 252.35 76.5307 250.12 75.3057C247.907 74.0624 246.161 72.3621 244.882 70.2046C243.62 68.0471 242.989 65.6063 242.989 62.882C242.989 60.1395 243.62 57.6986 244.882 55.5594C246.161 53.402 247.907 51.7107 250.12 50.4857C252.35 49.2424 254.874 48.6208 257.689 48.6208C259.993 48.6208 262.114 49.0505 264.052 49.9098C265.99 50.7691 267.626 51.9576 268.961 53.4751L264.326 58.3294C263.613 57.5066 262.708 56.8667 261.611 56.4096C260.532 55.9342 259.399 55.6966 258.21 55.6966C256.839 55.6966 255.614 56.0074 254.535 56.629C253.457 57.2324 252.606 58.0734 251.985 59.1522C251.363 60.2126 251.052 61.4376 251.052 62.8272C251.052 64.235 251.363 65.4874 251.985 66.5844C252.606 67.6815 253.457 68.5408 254.535 69.1624C255.614 69.7658 256.839 70.0675 258.21 70.0675C259.399 70.0675 260.541 69.8389 261.638 69.3818C262.735 68.9065 263.631 68.2574 264.326 67.4346L268.988 72.2341ZM273.815 76.5947V35.4566H281.686V52.4055C283.661 49.8824 286.495 48.6208 290.188 48.6208C293.644 48.6208 296.341 49.6904 298.279 51.8296C300.217 53.9505 301.186 56.9216 301.186 60.7428V76.5947H293.315V62.8272C293.315 60.5417 292.812 58.7773 291.806 57.5341C290.801 56.2908 289.393 55.6691 287.583 55.6691C285.736 55.6691 284.292 56.2999 283.25 57.5615C282.208 58.8231 281.686 60.5783 281.686 62.8272V76.5947H273.815ZM313.5 76.5947H304.642L321.042 35.4566H329.955L346.328 76.5947H337.47L334.096 67.7637H316.873L313.5 76.5947ZM319.643 60.3589H331.354L325.485 45.1103L319.643 60.3589ZM358.779 35.4566V76.5947H350.332V35.4566H358.779Z" fill="#FF385C"/>
<defs>
<clipPath id="clip0_245_666">
<rect width="81" height="81" fill="white" transform="translate(0 20)"/>
</clipPath>
<clipPath id="clip1_245_666">
<rect width="28" height="28" fill="white" transform="translate(7.99954)"/>
</clipPath>
</defs>
</svg>
