<svg width="28" height="28" viewBox="0 0 28 28" fill="none" xmlns="http://www.w3.org/2000/svg">
<circle cx="14" cy="14" r="11.254" stroke="white" stroke-width="1.49194"/>
<g clip-path="url(#clip0_311_13)">
<path d="M10.7707 17.3007C10.5639 17.094 10.486 17.1979 10.44 17.2439C9.24918 18.4347 8.192 21.308 8.75088 21.0273C10.7855 20.0058 11.1245 20.3099 12.3152 19.1192C12.3613 19.0732 12.4671 18.9973 12.2543 18.7844L10.7707 17.3007Z" fill="black"/>
<path d="M17.1902 17.285C17.1362 17.1132 17.2492 17.0305 17.2968 16.9791C19.9251 14.1416 21.5954 10.3612 20.3576 9.12328C19.1263 7.89204 15.4624 9.6112 12.6257 12.2205C12.5696 12.2722 12.459 12.3701 12.2611 12.3287L11.3773 12.1183C11.1319 12.0599 10.7851 12.158 10.6068 12.3364L7.36379 15.5793C7.18542 15.7577 7.24337 15.9357 7.49258 15.9749L9.83813 16.3435C10.0873 16.3827 10.4372 16.2688 10.6155 16.0904C10.6155 16.0904 10.7365 15.969 10.8581 16.0906C11.5289 16.7613 12.7756 18.0079 13.4147 18.6471C13.5417 18.7741 13.42 18.8949 13.42 18.8949C13.2416 19.0733 13.1278 19.4231 13.167 19.6723L13.5355 22.0178C13.5747 22.2671 13.7527 22.3251 13.9311 22.1466L17.1741 18.9036C17.3524 18.7253 17.4505 18.3786 17.3921 18.1332L17.1902 17.285ZM16.4641 13.0953C15.9148 12.546 15.9148 11.6555 16.4641 11.1063C17.0133 10.557 17.9038 10.557 18.4532 11.1063C19.0024 11.6554 19.0024 12.546 18.4532 13.0952C17.9038 13.6445 17.0133 13.6445 16.4641 13.0953Z" fill="black"/>
</g>
<g clip-path="url(#clip1_311_13)">
<path d="M10.9255 10.0532C10.9255 9.72964 10.8632 9.42555 10.7384 9.14097C10.6176 8.85638 10.4519 8.60882 10.2413 8.3983C10.0308 8.18778 9.78327 8.02209 9.49868 7.90124C9.21409 7.77648 8.91 7.71411 8.58643 7.71411C8.91 7.71411 9.21409 7.65368 9.49868 7.53283C9.78327 7.40807 10.0308 7.24044 10.2413 7.02992C10.4519 6.8194 10.6176 6.57184 10.7384 6.28725C10.8632 6.00266 10.9255 5.69858 10.9255 5.375C10.9255 5.69858 10.986 6.00266 11.1068 6.28725C11.2316 6.57184 11.3992 6.8194 11.6097 7.02992C11.8202 7.24044 12.0678 7.40807 12.3524 7.53283C12.637 7.65368 12.9411 7.71411 13.2646 7.71411C12.9411 7.71411 12.637 7.77648 12.3524 7.90124C12.0678 8.02209 11.8202 8.18778 11.6097 8.3983C11.3992 8.60882 11.2316 8.85638 11.1068 9.14097C10.986 9.42555 10.9255 9.72964 10.9255 10.0532Z" fill="#FF385C"/>
</g>
<circle cx="14" cy="14" r="13.5" stroke="#E2E8F0"/>
<defs>
<clipPath id="clip0_311_13">
<rect width="13.5334" height="13.5334" fill="white" transform="translate(7.25 8.7168)"/>
</clipPath>
<clipPath id="clip1_311_13">
<rect width="4.67822" height="4.67822" fill="white" transform="translate(8.58643 5.375)"/>
</clipPath>
</defs>
</svg>
