<svg width="32" height="32" viewBox="0 0 32 32" fill="none" xmlns="http://www.w3.org/2000/svg">
<path fill-rule="evenodd" clip-rule="evenodd" d="M16 15.9998C16 15.6462 16.1405 15.3071 16.3905 15.057C16.6406 14.807 16.9797 14.6665 17.3333 14.6665H28C28.3536 14.6665 28.6928 14.807 28.9428 15.057C29.1929 15.3071 29.3333 15.6462 29.3333 15.9998C29.3333 16.3535 29.1929 16.6926 28.9428 16.9426C28.6928 17.1927 28.3536 17.3332 28 17.3332H17.3333C16.9797 17.3332 16.6406 17.1927 16.3905 16.9426C16.1405 16.6926 16 16.3535 16 15.9998Z" fill="black"/>
<path fill-rule="evenodd" clip-rule="evenodd" d="M23.0574 20.9427C22.8074 20.6927 22.667 20.3536 22.667 20.0001C22.667 19.6465 22.8074 19.3074 23.0574 19.0574L26.1147 16.0001L23.0574 12.9427C22.8145 12.6913 22.6801 12.3544 22.6831 12.0049C22.6862 11.6553 22.8264 11.3208 23.0736 11.0736C23.3208 10.8264 23.6552 10.6862 24.0048 10.6832C24.3544 10.6801 24.6912 10.8145 24.9427 11.0574L28.8267 14.9414C29.412 15.5254 29.412 16.4747 28.8267 17.0587L24.9427 20.9427C24.6927 21.1927 24.3536 21.3331 24 21.3331C23.6465 21.3331 23.3074 21.1927 23.0574 20.9427Z" fill="black"/>
<path fill-rule="evenodd" clip-rule="evenodd" d="M2.66699 6.6665C2.66699 5.60564 3.08842 4.58822 3.83857 3.83808C4.58871 3.08793 5.60613 2.6665 6.66699 2.6665H19.3337C20.2177 2.6665 21.0656 3.01769 21.6907 3.64281C22.3158 4.26794 22.667 5.11578 22.667 5.99984V6.6665C22.667 7.02013 22.5265 7.35926 22.2765 7.60931C22.0264 7.85936 21.6873 7.99984 21.3337 7.99984C20.98 7.99984 20.6409 7.85936 20.3909 7.60931C20.1408 7.35926 20.0003 7.02013 20.0003 6.6665V5.99984C20.0003 5.82303 19.9301 5.65346 19.8051 5.52843C19.68 5.40341 19.5105 5.33317 19.3337 5.33317H6.66699C6.31337 5.33317 5.97423 5.47365 5.72418 5.7237C5.47413 5.97374 5.33366 6.31288 5.33366 6.6665V25.3332C5.33366 25.6868 5.47413 26.0259 5.72418 26.276C5.97423 26.526 6.31337 26.6665 6.66699 26.6665H19.3337C19.5105 26.6665 19.68 26.5963 19.8051 26.4712C19.9301 26.3462 20.0003 26.1766 20.0003 25.9998V25.3332C20.0003 24.9795 20.1408 24.6404 20.3909 24.3904C20.6409 24.1403 20.98 23.9998 21.3337 23.9998C21.6873 23.9998 22.0264 24.1403 22.2765 24.3904C22.5265 24.6404 22.667 24.9795 22.667 25.3332V25.9998C22.667 26.8839 22.3158 27.7317 21.6907 28.3569C21.0656 28.982 20.2177 29.3332 19.3337 29.3332H6.66699C5.60613 29.3332 4.58871 28.9117 3.83857 28.1616C3.08842 27.4115 2.66699 26.394 2.66699 25.3332V6.6665Z" fill="black"/>
</svg>
