<svg width="37" height="45" viewBox="0 0 37 45" fill="none" xmlns="http://www.w3.org/2000/svg">
<g clip-path="url(#clip0_106_1266)">
<path d="M9.38775 31.8023C8.83631 31.251 8.62863 31.528 8.50598 31.6508C5.33049 34.8263 2.51134 42.4883 4.0017 41.7399C9.42723 39.0157 10.3312 39.8268 13.5066 36.6515C13.6294 36.5288 13.9117 36.3264 13.3442 35.7588L9.38775 31.8023Z" fill="black"/>
<path d="M26.5061 31.7596C26.3622 31.3017 26.6637 31.081 26.7906 30.944C33.7992 23.3773 38.2535 13.2962 34.9526 9.99508C31.6691 6.71178 21.8988 11.2962 14.3342 18.2543C14.1845 18.3921 13.8896 18.6531 13.3619 18.543L11.005 17.9818C10.3507 17.8261 9.42607 18.0877 8.95043 18.5633L0.302453 27.2112C-0.173188 27.687 -0.0186535 28.1616 0.6459 28.266L6.90071 29.2489C7.56526 29.3535 8.49811 29.0497 8.97364 28.5739C8.97364 28.5739 9.29637 28.2503 9.62062 28.5745C11.4095 30.3632 14.7338 33.6875 16.4382 35.3919C16.7769 35.7306 16.4525 36.0528 16.4525 36.0528C15.9767 36.5285 15.6731 37.4612 15.7776 38.1258L16.7605 44.3805C16.8649 45.0453 17.3396 45.1998 17.8152 44.7241L26.4633 36.076C26.9388 35.6003 27.2005 34.676 27.0447 34.0216L26.5061 31.7596ZM24.5699 20.587C23.1052 19.1223 23.1052 16.7476 24.5699 15.2831C26.0346 13.8183 28.4092 13.8183 29.8741 15.2831C31.3387 16.7475 31.3387 19.1223 29.8741 20.5869C28.4092 22.0517 26.0345 22.0517 24.5699 20.587Z" fill="black"/>
</g>
<g clip-path="url(#clip1_106_1266)">
<path d="M9.80159 12.4752C9.80159 11.6124 9.63527 10.8015 9.30258 10.0426C8.98032 9.28368 8.53847 8.62351 7.97708 8.06213C7.4157 7.50074 6.75555 7.0589 5.99664 6.73663C5.23773 6.40394 4.42684 6.23762 3.56396 6.23762C4.42684 6.23762 5.23773 6.07647 5.99664 5.75421C6.75555 5.42152 7.4157 4.9745 7.97708 4.41312C8.53847 3.85173 8.98032 3.19158 9.30258 2.43267C9.63527 1.67376 9.80159 0.862873 9.80159 0C9.80159 0.862873 9.96274 1.67376 10.285 2.43267C10.6177 3.19158 11.0647 3.85173 11.6261 4.41312C12.1875 4.9745 12.8476 5.42152 13.6065 5.75421C14.3654 6.07647 15.1763 6.23762 16.0392 6.23762C15.1763 6.23762 14.3654 6.40394 13.6065 6.73663C12.8476 7.0589 12.1875 7.50074 11.6261 8.06213C11.0647 8.62351 10.6177 9.28368 10.285 10.0426C9.96274 10.8015 9.80159 11.6124 9.80159 12.4752Z" fill="#FF385C"/>
</g>
<defs>
<clipPath id="clip0_106_1266">
<rect width="36.0891" height="36.0891" fill="white" transform="translate(0 8.91113)"/>
</clipPath>
<clipPath id="clip1_106_1266">
<rect width="12.4752" height="12.4752" fill="white" transform="translate(3.56396)"/>
</clipPath>
</defs>
</svg>
