<svg width="40" height="41" viewBox="0 0 40 41" fill="none" xmlns="http://www.w3.org/2000/svg">
<path fill-rule="evenodd" clip-rule="evenodd" d="M24.4437 27.3674H39.3077V29.2069H24.1C24.2744 28.6163 24.3912 28.001 24.4437 27.3674ZM15.2767 18.7109C10.9209 18.7109 7.38977 22.242 7.38977 26.5979C7.38977 28.2775 7.91518 29.8342 8.81014 31.1134L6.35019 33.5272L6.25331 33.4273C5.97875 33.1444 5.52241 33.1375 5.2394 33.4122L0.908236 37.615C0.625228 37.8897 0.618337 38.3458 0.892978 38.6288L2.45674 40.2403C2.73138 40.5234 3.18764 40.5302 3.47065 40.2555L7.80181 36.0528C8.08482 35.7783 8.09163 35.3219 7.81707 35.0389L7.73578 34.9552L10.1473 32.5886C11.5263 33.7706 13.3182 34.4849 15.2768 34.4849C19.6327 34.4849 23.1637 30.9538 23.1637 26.598C23.1636 22.242 19.6325 18.7109 15.2767 18.7109ZM15.2767 20.9345C18.4044 20.9345 20.9399 23.4701 20.9399 26.5978C20.9399 29.7255 18.4044 32.2611 15.2767 32.2611C12.149 32.2611 9.61339 29.7255 9.61339 26.5978C9.61339 23.4701 12.149 20.9345 15.2767 20.9345ZM6.45338 29.207H5.82355V1.08208H7.6631V21.4336C6.6624 22.906 6.07735 24.6836 6.07735 26.5979C6.07735 27.5043 6.20909 28.3797 6.45338 29.207ZM11.6554 16.6361H14.7846C15.0557 16.6361 15.2767 16.8572 15.2767 17.1283V17.3985C13.7981 17.3985 12.4011 17.748 11.1633 18.368V17.1283C11.1632 16.8572 11.3843 16.6361 11.6554 16.6361ZM34.5698 6.14718H37.6989C37.97 6.14718 38.1911 6.36825 38.1911 6.63937V24.1805C38.1911 24.4516 37.97 24.6727 37.6989 24.6727H34.5698C34.2986 24.6727 34.0776 24.4516 34.0776 24.1805V6.63937C34.0776 6.36834 34.2986 6.14718 34.5698 6.14718ZM26.9317 13.2576H30.0608C30.3319 13.2576 30.553 13.4788 30.553 13.7499V24.1806C30.5531 24.4517 30.3319 24.6729 30.0608 24.6729H26.9317C26.6606 24.6729 26.4394 24.4517 26.4395 24.1806V13.7499C26.4395 13.4788 26.6606 13.2576 26.9317 13.2576ZM19.2935 11.5431H22.4227C22.6938 11.5431 22.9148 11.7642 22.9148 12.0353V21.4698C21.9112 19.978 20.482 18.7965 18.8014 18.0986V12.0354C18.8014 11.7643 19.0225 11.5431 19.2935 11.5431ZM13.6223 12.8896L20.9858 7.15592L28.2963 9.52531C28.4111 9.56218 28.5338 9.56662 28.651 9.53811C28.7682 9.50961 28.8752 9.44928 28.9602 9.36379L35.2742 2.99587L35.2057 3.60782C35.1954 3.69379 35.2022 3.78096 35.2257 3.8643C35.2492 3.94763 35.289 4.02547 35.3429 4.09332C35.3967 4.16116 35.4634 4.21767 35.5392 4.25957C35.6149 4.30147 35.6983 4.32792 35.7844 4.33741C35.8704 4.3469 35.9575 4.33923 36.0406 4.31485C36.1237 4.29046 36.2011 4.24985 36.2684 4.19535C36.3357 4.14085 36.3915 4.07355 36.4327 3.99735C36.4738 3.92114 36.4994 3.83754 36.508 3.75138L36.7808 1.31078C36.8529 0.892505 36.5059 0.508516 36.0777 0.54543L33.5914 0.76347C33.5055 0.770864 33.422 0.795098 33.3455 0.834786C33.269 0.874474 33.2011 0.92884 33.1456 0.994778C33.0902 1.06072 33.0483 1.13693 33.0223 1.21908C32.9963 1.30123 32.9867 1.38769 32.9941 1.47353C33.0015 1.55938 33.0257 1.64292 33.0654 1.7194C33.1051 1.79588 33.1595 1.86379 33.2254 1.91925C33.2913 1.97472 33.3676 2.01665 33.4497 2.04265C33.5319 2.06865 33.6183 2.07822 33.7042 2.0708L34.4096 2.00895L28.3149 8.1558L21.0578 5.80413C20.9563 5.77146 20.8483 5.76416 20.7433 5.78287C20.6383 5.80157 20.5395 5.84571 20.4555 5.91142L12.8174 11.8589C12.6807 11.9657 12.592 12.1223 12.5709 12.2945C12.5497 12.4666 12.5978 12.6401 12.7045 12.7767C12.8113 12.9134 12.9679 13.0021 13.1401 13.0232C13.3122 13.0444 13.4857 12.9963 13.6223 12.8896Z" fill="black"/>
</svg>
