<svg width="30" height="29" viewBox="0 0 28 29" fill="none" xmlns="http://www.w3.org/2000/svg">
<path d="M14.4542 4.55738V2.66934C14.9782 2.48415 15.3576 1.98729 15.3576 1.39558C15.3576 0.650303 14.7478 0.0405273 14.0026 0.0405273C13.2573 0.0405273 12.6475 0.650303 12.6475 1.39558C12.6475 1.98278 13.0269 2.47963 13.5509 2.66934V4.55738H14.4542ZM14.0026 0.943899C14.251 0.943899 14.4542 1.14716 14.4542 1.39558C14.4542 1.64401 14.251 1.84727 14.0026 1.84727C13.7541 1.84727 13.5509 1.64401 13.5509 1.39558C13.5509 1.14716 13.7541 0.943899 14.0026 0.943899ZM12.4036 11.3327H11.5002C11.297 11.3327 11.1163 11.4727 11.0621 11.6714L9.7251 16.7529H10.6601L11.1344 14.9462H12.7695L13.2437 16.7529H14.1787L12.8417 11.6714C12.7875 11.4727 12.6114 11.3327 12.4036 11.3327ZM11.3738 14.0428L11.848 12.236H12.0558L12.5301 14.0428H11.3738ZM15.1137 12.236H16.2429V15.8495H15.1137V16.7529H18.2755V15.8495H17.1463V12.236H18.2755V11.3327H15.1137V12.236ZM26.6498 12.6877C26.0626 12.6877 25.5657 13.0671 25.376 13.5911H23.488V14.4945H25.376C25.5612 15.0184 26.0581 15.3978 26.6498 15.3978C27.395 15.3978 28.0048 14.7881 28.0048 14.0428C28.0048 13.2975 27.395 12.6877 26.6498 12.6877ZM26.6498 14.4945C26.4013 14.4945 26.1981 14.2912 26.1981 14.0428C26.1981 13.7944 26.4013 13.5911 26.6498 13.5911C26.8982 13.5911 27.1014 13.7944 27.1014 14.0428C27.1014 14.2912 26.8982 14.4945 26.6498 14.4945Z" fill="black"/>
<path d="M19.7251 7.64667C17.8822 5.99802 15.5019 5.23919 13.0221 5.51472C8.98403 5.96189 5.79964 9.23209 5.45185 13.2837C5.12663 17.0779 7.33086 20.6191 10.8405 22.0103V24.8785C10.8405 26.622 12.2588 28.0403 14.0023 28.0403C15.7458 28.0403 17.1641 26.622 17.1641 24.8785V22.0103C20.4207 20.7185 22.5843 17.5567 22.5843 14.038C22.5843 11.5989 21.5409 9.26823 19.7251 7.64216V7.64667ZM14.0023 27.1414C13.0763 27.1414 12.2859 26.5813 11.9335 25.7864H16.0665C15.7187 26.5813 14.9237 27.1414 13.9977 27.1414H14.0023ZM16.2607 24.883H11.7438V23.5279H16.2607V24.883ZM16.5633 21.274C16.3826 21.3373 16.2607 21.5089 16.2607 21.6986V22.6246H11.7438V21.6986C11.7438 21.5089 11.6219 21.3373 11.4412 21.274C8.14389 20.1087 6.05259 16.852 6.3507 13.3605C6.66236 9.73346 9.50798 6.81106 13.1215 6.40906C13.4196 6.37744 13.7177 6.35937 14.0113 6.35937C15.9039 6.35937 17.6925 7.0369 19.1199 8.31517C20.7459 9.7696 21.6809 11.8564 21.6809 14.038C21.6809 17.2811 19.6257 20.1855 16.5633 21.2695V21.274ZM4.51686 13.5909H2.62881C2.53619 13.3269 2.3639 13.0982 2.13573 12.9364C1.90757 12.7746 1.63478 12.6876 1.35506 12.6875C0.609776 12.6875 0 13.2973 0 14.0425C0 14.7878 0.609776 15.3976 1.35506 15.3976C1.94225 15.3976 2.4391 15.0182 2.62881 14.4942H4.51686V13.5909ZM1.35506 14.4942C1.10663 14.4942 0.903371 14.291 0.903371 14.0425C0.903371 13.7941 1.10663 13.5909 1.35506 13.5909C1.60348 13.5909 1.80674 13.7941 1.80674 14.0425C1.80674 14.291 1.60348 14.4942 1.35506 14.4942ZM22.3675 21.7709L21.026 20.4294L20.3891 21.0663L21.7261 22.4032C21.6036 22.6552 21.563 22.9392 21.61 23.2154C21.657 23.4916 21.7892 23.7462 21.9881 23.9435C22.2455 24.201 22.5843 24.341 22.9456 24.341C23.307 24.341 23.6503 24.201 23.9032 23.9435C24.1562 23.686 24.3007 23.3473 24.3007 22.9859C24.3007 22.6246 24.1607 22.2858 23.9032 22.0283C23.5012 21.6263 22.8688 21.545 22.3675 21.7709ZM23.2618 23.3066C23.0902 23.4783 22.7966 23.4783 22.6249 23.3066C22.5391 23.2208 22.4939 23.1079 22.4939 22.9859C22.4933 22.9264 22.5046 22.8674 22.5271 22.8124C22.5496 22.7573 22.5828 22.7072 22.6249 22.6652C22.667 22.6231 22.717 22.5899 22.7721 22.5674C22.8271 22.5449 22.8862 22.5336 22.9456 22.5342C23.0051 22.5336 23.0641 22.5449 23.1192 22.5674C23.1743 22.5899 23.2243 22.6231 23.2664 22.6652C23.3084 22.7072 23.3417 22.7573 23.3642 22.8124C23.3867 22.8674 23.3979 22.9264 23.3973 22.9859C23.3973 23.1079 23.3522 23.2208 23.2663 23.3066H23.2618ZM4.10131 4.14159C3.84385 4.39905 3.70382 4.73782 3.70382 5.09917C3.70382 5.46051 3.84385 5.79928 4.10131 6.05674C4.35877 6.3142 4.69753 6.45422 5.05888 6.45422C5.26214 6.45422 5.46088 6.40454 5.64155 6.31872L6.97854 7.65571L7.61542 7.01883L6.27843 5.68184C6.40089 5.42986 6.44148 5.14589 6.3945 4.8697C6.34752 4.5935 6.21534 4.33892 6.01645 4.14159C5.50153 3.63119 4.61171 3.63119 4.10131 4.14159ZM5.37958 5.41986C5.20794 5.5915 4.90982 5.5915 4.7427 5.41986C4.65688 5.33404 4.61171 5.22112 4.61171 5.09917C4.61111 5.03968 4.62238 4.98068 4.64486 4.9256C4.66735 4.87053 4.7006 4.82049 4.74266 4.77843C4.78472 4.73637 4.83476 4.70312 4.88983 4.68063C4.94491 4.65815 5.00391 4.64688 5.0634 4.64748C5.12288 4.64688 5.18189 4.65815 5.23696 4.68063C5.29204 4.70312 5.34207 4.73637 5.38413 4.77843C5.4262 4.82049 5.45945 4.87053 5.48193 4.9256C5.50442 4.98068 5.51569 5.03968 5.51508 5.09917C5.51508 5.22112 5.46991 5.33404 5.38409 5.41986H5.37958ZM21.0305 7.65571L22.3675 6.31872C22.6195 6.44118 22.9034 6.48176 23.1796 6.43478C23.4558 6.38781 23.7104 6.25562 23.9077 6.05674C24.1652 5.79928 24.3052 5.46051 24.3052 5.09917C24.3052 4.73782 24.1652 4.39454 23.9077 4.14159C23.3973 3.63119 22.503 3.63119 21.9926 4.14159C21.7351 4.39905 21.5951 4.73782 21.5951 5.09917C21.5951 5.30242 21.6448 5.50117 21.7306 5.68184L20.3936 7.01883L21.0305 7.65571ZM22.6295 4.78299C22.7153 4.69717 22.8282 4.652 22.9502 4.652C23.0096 4.65139 23.0686 4.66266 23.1237 4.68515C23.1788 4.70764 23.2288 4.74088 23.2709 4.78295C23.313 4.82501 23.3462 4.87504 23.3687 4.93012C23.3912 4.98519 23.4024 5.0442 23.4018 5.10368C23.4018 5.22564 23.3567 5.33856 23.2708 5.42438C23.0992 5.59602 22.8056 5.59602 22.634 5.42438C22.5482 5.33856 22.503 5.22564 22.503 5.10368C22.503 4.98173 22.5482 4.86881 22.634 4.78299H22.6295ZM6.97403 20.4294L5.63252 21.7709C5.13115 21.545 4.49879 21.6263 4.09679 22.0283C3.83933 22.2858 3.69931 22.6246 3.69931 22.9859C3.69931 23.3473 3.83933 23.6905 4.09679 23.9435C4.35425 24.1964 4.69301 24.341 5.05436 24.341C5.41571 24.341 5.75448 24.201 6.01194 23.9435C6.2694 23.686 6.40942 23.3473 6.40942 22.9859C6.40942 22.7827 6.35974 22.5839 6.27391 22.4032L7.6109 21.0663L6.97403 20.4294ZM5.37506 23.3021C5.20342 23.4737 4.90531 23.4737 4.73818 23.3021C4.65236 23.2163 4.60719 23.1034 4.60719 22.9814C4.60659 22.9219 4.61786 22.8629 4.64035 22.8078C4.66283 22.7528 4.69608 22.7027 4.73814 22.6607C4.78021 22.6186 4.83024 22.5854 4.88532 22.5629C4.94039 22.5404 4.9994 22.5291 5.05888 22.5297C5.11836 22.5291 5.17737 22.5404 5.23244 22.5629C5.28752 22.5854 5.33755 22.6186 5.37962 22.6607C5.42168 22.7027 5.45493 22.7528 5.47741 22.8078C5.4999 22.8629 5.51117 22.9219 5.51057 22.9814C5.51057 23.1034 5.4654 23.2163 5.37958 23.3021H5.37506Z" fill="black"/>
</svg>
