<svg width="32" height="32" viewBox="0 0 28 28" fill="none" xmlns="http://www.w3.org/2000/svg">
<path fill-rule="evenodd" clip-rule="evenodd" d="M20.9609 0.757667C19.8357 0.666504 18.4344 0.666504 16.6489 0.666504H11.3511C9.56558 0.666504 8.16428 0.666504 7.03907 0.757667C5.89302 0.852737 4.94623 1.04548 4.0893 1.48306C2.68017 2.20102 1.53451 3.34667 0.816558 4.75581C0.378977 5.61274 0.186233 6.55953 0.0924651 7.70557C-2.91092e-08 8.83078 0 10.2321 0 12.0176V17.5681C0 18.3415 0.152326 19.1073 0.448282 19.8218C0.744238 20.5363 1.17803 21.1855 1.72488 21.7323C2.82931 22.8367 4.32723 23.4572 5.88912 23.4572H6.67181C6.99609 23.4572 7.21749 23.7841 7.09767 24.0849C6.20298 26.3197 8.77768 28.3409 10.7364 26.9422L14.1367 24.5134L14.2019 24.4678C15.1247 23.8174 16.2245 23.4647 17.3535 23.4572H18.338C20.3553 23.4572 21.5847 23.4572 22.6188 23.1551C23.8232 22.8019 24.9195 22.1518 25.807 21.2642C26.6945 20.3767 27.3447 19.2804 27.6979 18.076C28 17.0419 28 15.8126 28 13.7952V12.0176C28 10.2321 28 8.83078 27.9088 7.70557C27.8138 6.55953 27.621 5.61274 27.1834 4.75581C26.4655 3.34667 25.3198 2.20102 23.9107 1.48306C23.0538 1.04548 22.107 0.851434 20.9609 0.757667ZM4.97619 3.22427C5.51144 2.95078 6.17302 2.7906 7.19795 2.70725C8.2346 2.6226 9.55516 2.62129 11.3953 2.62129H16.6047C18.4448 2.62129 19.7654 2.62129 20.802 2.70725C21.827 2.7906 22.4886 2.95209 23.0251 3.22427C24.0666 3.75522 24.9131 4.60227 25.4435 5.64399C25.717 6.17925 25.8772 6.84083 25.9606 7.86576C26.0452 8.90241 26.0465 10.223 26.0465 12.0632V13.6051C26.0465 15.8738 26.0361 16.7984 25.8225 17.5277C25.5615 18.4177 25.081 19.2278 24.4251 19.8836C23.7693 20.5395 22.9592 21.02 22.0692 21.281C21.3399 21.4946 20.4153 21.505 18.1466 21.505H17.3405C15.8125 21.515 14.3243 21.9922 13.0753 22.8725L9.60205 25.3534C9.22958 25.6191 8.74121 25.2362 8.91181 24.8116C9.05833 24.4457 9.11287 24.0494 9.07066 23.6575C9.02844 23.2656 8.89077 22.89 8.66969 22.5636C8.44861 22.2373 8.15087 21.9701 7.80256 21.7856C7.45425 21.601 7.066 21.5047 6.67181 21.505H5.88912C4.84532 21.505 3.84428 21.0904 3.10621 20.3523C2.36813 19.6142 1.95349 18.6132 1.95349 17.5694V12.0619C1.95349 10.2217 1.95349 8.90111 2.03944 7.86446C2.12279 6.83953 2.28428 6.17795 2.55647 5.64269C3.08719 4.60077 3.93427 3.755 4.97619 3.22427Z" fill="black"/>
<path d="M10.0929 12.0621C10.0929 12.4075 9.95572 12.7387 9.71149 12.983C9.46726 13.2272 9.13601 13.3644 8.79061 13.3644C8.44521 13.3644 8.11396 13.2272 7.86972 12.983C7.62549 12.7387 7.48828 12.4075 7.48828 12.0621C7.48828 11.7167 7.62549 11.3854 7.86972 11.1412C8.11396 10.897 8.44521 10.7598 8.79061 10.7598C9.13601 10.7598 9.46726 10.897 9.71149 11.1412C9.95572 11.3854 10.0929 11.7167 10.0929 12.0621ZM15.3022 12.0621C15.3022 12.4075 15.165 12.7387 14.9208 12.983C14.6766 13.2272 14.3453 13.3644 13.9999 13.3644C13.6545 13.3644 13.3233 13.2272 13.079 12.983C12.8348 12.7387 12.6976 12.4075 12.6976 12.0621C12.6976 11.7167 12.8348 11.3854 13.079 11.1412C13.3233 10.897 13.6545 10.7598 13.9999 10.7598C14.3453 10.7598 14.6766 10.897 14.9208 11.1412C15.165 11.3854 15.3022 11.7167 15.3022 12.0621ZM20.5115 12.0621C20.5115 12.4075 20.3743 12.7387 20.1301 12.983C19.8859 13.2272 19.5546 13.3644 19.2092 13.3644C18.8638 13.3644 18.5326 13.2272 18.2883 12.983C18.0441 12.7387 17.9069 12.4075 17.9069 12.0621C17.9069 11.7167 18.0441 11.3854 18.2883 11.1412C18.5326 10.897 18.8638 10.7598 19.2092 10.7598C19.5546 10.7598 19.8859 10.897 20.1301 11.1412C20.3743 11.3854 20.5115 11.7167 20.5115 12.0621Z" fill="black"/>
</svg>
