<svg width="32" height="32" viewBox="0 0 32 32" fill="none" xmlns="http://www.w3.org/2000/svg">
<path d="M11.7417 2H4.91667C4.14312 2 3.40125 2.30729 2.85427 2.85427C2.30729 3.40125 2 4.14312 2 4.91667V11.7417C2 12.5152 2.30729 13.2571 2.85427 13.8041C3.40125 14.351 4.14312 14.6583 4.91667 14.6583H11.7417C12.5152 14.6583 13.2571 14.351 13.8041 13.8041C14.351 13.2571 14.6583 12.5152 14.6583 11.7417V4.91667C14.6583 4.14312 14.351 3.40125 13.8041 2.85427C13.2571 2.30729 12.5152 2 11.7417 2ZM12.325 11.7417C12.325 11.8964 12.2635 12.0447 12.1541 12.1541C12.0447 12.2635 11.8964 12.325 11.7417 12.325H4.91667C4.76196 12.325 4.61358 12.2635 4.50419 12.1541C4.39479 12.0447 4.33333 11.8964 4.33333 11.7417V4.91667C4.33333 4.76196 4.39479 4.61358 4.50419 4.50419C4.61358 4.39479 4.76196 4.33333 4.91667 4.33333H11.7417C11.8964 4.33333 12.0447 4.39479 12.1541 4.50419C12.2635 4.61358 12.325 4.76196 12.325 4.91667V11.7417ZM27.0833 2H20.2583C19.4848 2 18.7429 2.30729 18.1959 2.85427C17.649 3.40125 17.3417 4.14312 17.3417 4.91667V11.7417C17.3417 12.5152 17.649 13.2571 18.1959 13.8041C18.7429 14.351 19.4848 14.6583 20.2583 14.6583H27.0833C27.8569 14.6583 28.5987 14.351 29.1457 13.8041C29.6927 13.2571 30 12.5152 30 11.7417V4.91667C30 4.14312 29.6927 3.40125 29.1457 2.85427C28.5987 2.30729 27.8569 2 27.0833 2ZM27.6667 11.7417C27.6667 11.8964 27.6052 12.0447 27.4958 12.1541C27.3864 12.2635 27.238 12.325 27.0833 12.325H20.2583C20.1036 12.325 19.9552 12.2635 19.8459 12.1541C19.7365 12.0447 19.675 11.8964 19.675 11.7417V4.91667C19.675 4.76196 19.7365 4.61358 19.8459 4.50419C19.9552 4.39479 20.1036 4.33333 20.2583 4.33333H27.0833C27.238 4.33333 27.3864 4.39479 27.4958 4.50419C27.6052 4.61358 27.6667 4.76196 27.6667 4.91667V11.7417ZM11.7417 17.3008H4.91667C4.14312 17.3008 3.40125 17.6081 2.85427 18.1551C2.30729 18.7021 2 19.444 2 20.2175V27.0367C2 27.8102 2.30729 28.5521 2.85427 29.0991C3.40125 29.646 4.14312 29.9533 4.91667 29.9533H11.7417C12.5152 29.9533 13.2571 29.646 13.8041 29.0991C14.351 28.5521 14.6583 27.8102 14.6583 27.0367V20.2175C14.6583 19.444 14.351 18.7021 13.8041 18.1551C13.2571 17.6081 12.5152 17.3008 11.7417 17.3008ZM12.325 27.0367C12.325 27.1914 12.2635 27.3397 12.1541 27.4491C12.0447 27.5585 11.8964 27.62 11.7417 27.62H4.91667C4.76196 27.62 4.61358 27.5585 4.50419 27.4491C4.39479 27.3397 4.33333 27.1914 4.33333 27.0367V20.2175C4.33333 20.0628 4.39479 19.9144 4.50419 19.805C4.61358 19.6956 4.76196 19.6342 4.91667 19.6342H11.7417C11.8964 19.6342 12.0447 19.6956 12.1541 19.805C12.2635 19.9144 12.325 20.0628 12.325 20.2175V27.0367ZM28.8333 17.3008H18.4617C18.1522 17.3008 17.8555 17.4238 17.6367 17.6425C17.4179 17.8613 17.295 18.1581 17.295 18.4675C17.295 18.7769 17.4179 19.0737 17.6367 19.2925C17.8555 19.5113 18.1522 19.6342 18.4617 19.6342H28.8333C29.1428 19.6342 29.4395 19.5113 29.6583 19.2925C29.8771 19.0737 30 18.7769 30 18.4675C30 18.1581 29.8771 17.8613 29.6583 17.6425C29.4395 17.4238 29.1428 17.3008 28.8333 17.3008ZM28.8333 22.4808H18.4617C18.1522 22.4808 17.8555 22.6037 17.6367 22.8225C17.4179 23.0413 17.295 23.3381 17.295 23.6475C17.295 23.9569 17.4179 24.2537 17.6367 24.4725C17.8555 24.6912 18.1522 24.8142 18.4617 24.8142H28.8333C29.1428 24.8142 29.4395 24.6912 29.6583 24.4725C29.8771 24.2537 30 23.9569 30 23.6475C30 23.3381 29.8771 23.0413 29.6583 22.8225C29.4395 22.6037 29.1428 22.4808 28.8333 22.4808ZM28.8333 27.6667H18.4617C18.1522 27.6667 17.8555 27.7896 17.6367 28.0084C17.4179 28.2272 17.295 28.5239 17.295 28.8333C17.295 29.1428 17.4179 29.4395 17.6367 29.6583C17.8555 29.8771 18.1522 30 18.4617 30H28.8333C29.1428 30 29.4395 29.8771 29.6583 29.6583C29.8771 29.4395 30 29.1428 30 28.8333C30 28.5239 29.8771 28.2272 29.6583 28.0084C29.4395 27.7896 29.1428 27.6667 28.8333 27.6667Z" fill="#222222"/>
</svg>
